<?xml version="1.0" encoding="UTF-8" standalone="no"?>
<!-- Created with Inkscape (http://www.inkscape.org/) -->

<svg
   xmlns:dc="http://purl.org/dc/elements/1.1/"
   xmlns:cc="http://creativecommons.org/ns#"
   xmlns:rdf="http://www.w3.org/1999/02/22-rdf-syntax-ns#"
   xmlns:svg="http://www.w3.org/2000/svg"
   xmlns="http://www.w3.org/2000/svg"
   xmlns:sodipodi="http://sodipodi.sourceforge.net/DTD/sodipodi-0.dtd"
   xmlns:inkscape="http://www.inkscape.org/namespaces/inkscape"
   width="210mm"
   height="297mm"
   viewBox="0 0 744.09448819 1052.3622047"
   id="svg5303"
   version="1.1"
   inkscape:version="0.91 r13725"
   sodipodi:docname="photo.svg">
  <defs
     id="defs5305" />
  <sodipodi:namedview
     id="base"
     pagecolor="#ffffff"
     bordercolor="#666666"
     borderopacity="1.0"
     inkscape:pageopacity="0.0"
     inkscape:pageshadow="2"
     inkscape:zoom="0.35"
     inkscape:cx="-79.350416"
     inkscape:cy="832.15638"
     inkscape:document-units="px"
     inkscape:current-layer="g5952"
     showgrid="false"
     inkscape:window-width="1280"
     inkscape:window-height="971"
     inkscape:window-x="-8"
     inkscape:window-y="-8"
     inkscape:window-maximized="1" />
  <metadata
     id="metadata5308">
    <rdf:RDF>
      <cc:Work
         rdf:about="">
        <dc:format>image/svg+xml</dc:format>
        <dc:type
           rdf:resource="http://purl.org/dc/dcmitype/StillImage" />
        <dc:title></dc:title>
      </cc:Work>
    </rdf:RDF>
  </metadata>
  <g
     inkscape:label="Layer 1"
     inkscape:groupmode="layer"
     id="layer1"
     style="display:inline">
    <g
       id="g5952"
       transform="matrix(0.125,0,0,-0.125,-72,949.77334)"
       style="fill:#000000;stroke:none">
      <path
         id="path5954"
         d="m 3610,7617 c -42,-22 -70,-27 -70,-11 0,16 -16,19 -25,4 -5,-8 -11,-7 -21,1 -10,8 -14,8 -14,0 0,-6 -12,-11 -26,-11 -14,0 -23,4 -20,8 10,16 -142,7 -161,-10 -20,-17 -62,-33 -79,-30 -7,1 -14,-4 -18,-13 -3,-8 -18,-15 -33,-15 -19,0 -24,-3 -15,-9 10,-6 10,-10 -3,-21 -24,-20 -19,-43 9,-38 17,3 23,0 22,-11 -1,-16 -7,-25 -46,-71 l -22,-25 6,23 c 3,17 1,22 -9,19 -7,-3 -17,-1 -23,5 -7,7 -17,6 -31,-1 -32,-17 -26,-3 20,46 47,51 45,64 -5,35 -25,-15 -33,-17 -29,-6 6,17 -9,18 -25,2 -10,-10 -15,-10 -21,1 -6,9 -11,10 -15,2 -4,-6 -13,-8 -19,-5 -7,4 -9,4 -5,-1 8,-9 -34,-45 -53,-45 -8,0 -5,8 7,21 19,22 19,22 -3,8 -13,-8 -23,-20 -23,-28 0,-12 -3,-12 -12,-3 -9,9 -20,2 -48,-28 -20,-22 -41,-40 -45,-40 -5,0 6,14 23,31 18,17 32,39 32,48 0,14 -2,14 -10,1 -6,-10 -10,-11 -10,-3 0,13 -19,0 -60,-38 -35,-33 -53,-38 -66,-21 -7,10 -15,14 -18,11 -4,-3 2,-17 13,-30 18,-24 18,-25 0,-47 -10,-13 -22,-22 -26,-21 -4,1 -19,-26 -33,-59 -23,-53 -28,-59 -43,-47 -9,7 -17,17 -17,23 0,13 -29,24 -42,15 -7,-3 -8,-1 -4,5 4,7 2,12 -3,12 -6,0 -11,-3 -11,-7 -1,-5 -7,-30 -15,-58 l -14,-50 -1,40 c 0,33 -2,37 -11,22 -6,-11 -9,-30 -6,-43 2,-13 0,-24 -4,-24 -9,0 -13,14 -10,37 1,6 -4,15 -10,19 -9,5 -10,-1 -6,-24 5,-22 3,-31 -6,-29 -8,1 -11,-10 -11,-30 2,-40 -1,-41 -20,-5 l -15,27 -1,-25 c 0,-18 -3,-21 -9,-12 -7,11 -9,11 -14,-2 -5,-12 -14,-15 -31,-10 -21,5 -23,3 -18,-23 5,-25 3,-26 -10,-15 -11,8 -18,9 -22,3 -4,-6 -13,-8 -21,-5 -10,4 -12,0 -8,-15 6,-22 -12,-29 -21,-8 -3,6 -4,3 -1,-8 4,-18 0,-20 -40,-21 -25,-1 -45,2 -45,5 0,4 -6,16 -14,27 -13,17 -15,17 -12,1 1,-10 10,-27 19,-38 10,-11 15,-25 11,-31 -4,-7 -3,-8 4,-4 7,4 12,2 12,-4 0,-7 9,-23 20,-37 24,-30 26,-45 5,-37 -8,4 -13,10 -10,14 3,5 1,11 -5,15 -5,3 -11,0 -11,-7 -1,-7 -2,-20 -3,-28 -1,-8 5,-23 12,-32 17,-20 7,-41 -16,-36 -10,2 -25,-5 -34,-15 -10,-11 -22,-16 -29,-11 -9,5 -10,1 -6,-15 5,-20 3,-22 -19,-17 -17,5 -24,2 -24,-9 0,-8 6,-15 13,-15 8,0 8,-3 -2,-9 -9,-6 -21,-5 -32,2 -24,15 -33,4 -18,-22 l -11,-109 c 0,-7 -13,-15 -28,-18 -35,-7 -59,-39 -35,-48 12,-5 13,-9 3,-21 -7,-8 -10,-21 -7,-30 4,-8 1,-20 -6,-27 -7,-8 -20,-28 -31,-47 -18,-32 -18,-33 0,-23 11,5 25,7 33,4 8,-3 11,0 7,7 -4,6 0,14 9,17 26,10 28,-2 4,-25 -15,-14 -25,-17 -30,-10 -12,20 -19,-20 -7,-46 6,-14 8,-28 5,-32 -7,-50 6,-63 -7,-50 0,-7 6,-13 13,-13 7,0 13,-16 14,-38 2,-20 10,-65 19,-100 8,-35 15,-76 14,-90 -1,-15 -1,-31 0,-37 1,-5 1,-28 1,-50 l -1,-40 15,40 c 8,22 17,60 21,85 10,68 79,221 103,227 9,2 24,24 35,49 10,24 22,44 26,44 5,0 23,29 39,64 17,35 38,69 46,76 13,10 13,15 3,21 -14,9 -14,8 27,29 19,10 34,27 40,48 6,22 14,31 24,27 16,-6 71,42 71,62 0,8 -5,11 -12,7 -7,-4 -8,-3 -4,5 6,9 11,9 21,1 9,-7 16,-6 26,7 12,15 12,16 -4,10 -11,-4 -16,-3 -12,3 3,6 12,10 19,10 6,0 34,14 62,31 75,49 106,65 137,73 15,3 27,11 27,16 0,6 6,10 14,10 8,0 16,4 18,9 2,5 17,12 33,14 17,3 45,10 63,16 18,5 33,10 35,10 1,0 9,2 17,4 46,15 114,27 152,27 24,0 48,4 54,10 5,5 36,12 69,16 33,3 65,10 71,15 6,5 15,4 22,-3 7,-7 12,-8 12,-2 0,5 15,9 32,9 18,1 60,5 92,9 42,6 65,5 79,-4 15,-9 21,-9 27,0 5,9 9,9 14,1 4,-6 12,-9 17,-6 5,4 14,3 20,-1 6,-3 101,-8 211,-10 116,-2 206,-8 213,-14 6,-5 36,-12 66,-15 30,-3 65,-10 79,-15 14,-6 39,-12 55,-14 17,-2 55,-11 85,-20 95,-28 124,-36 150,-41 41,-7 125,-31 145,-42 11,-6 36,-13 55,-17 19,-3 55,-23 80,-44 25,-20 70,-56 100,-79 30,-23 73,-60 95,-82 21,-23 43,-41 48,-41 13,0 39,-33 109,-138 48,-71 64,-89 69,-75 4,13 8,9 13,-17 6,-35 40,-89 50,-80 2,3 -6,28 -20,55 -13,28 -24,61 -24,74 0,23 1,22 24,-10 35,-49 96,-158 96,-172 1,-7 12,-25 25,-42 l 25,-30 0,28 c 0,16 4,26 10,22 6,-3 10,-15 10,-25 0,-10 6,-21 13,-23 7,-3 5,-6 -6,-6 -15,-1 -16,-3 -5,-15 7,-7 18,-12 24,-9 12,4 12,20 0,71 -6,27 -12,33 -28,29 -15,-4 -17,-3 -8,8 9,11 18,10 48,-8 31,-18 35,-18 23,-3 -11,13 -12,19 -2,25 8,5 4,13 -14,27 -14,10 -25,24 -25,30 0,6 -11,21 -24,33 -20,19 -42,83 -36,107 1,3 -6,11 -16,18 -20,15 -11,38 11,29 8,-3 15,0 15,6 0,7 -7,14 -15,17 -15,6 -15,23 0,58 6,13 3,23 -8,31 -10,7 -17,17 -17,23 0,12 -40,38 -52,34 -4,-1 -5,5 -2,13 5,11 2,13 -10,9 -13,-5 -16,2 -16,42 0,42 -4,52 -32,77 -21,19 -29,31 -20,34 6,2 12,9 12,14 0,6 -5,7 -12,3 -8,-5 -9,-2 -5,9 4,11 -1,20 -13,27 -24,13 -28,45 -4,36 9,-3 12,-2 8,5 -8,14 27,46 58,54 23,6 36,35 16,35 -5,0 -7,4 -3,9 3,5 -2,16 -10,24 -28,29 -15,40 18,15 54,-41 62,-43 38,-10 -12,18 -41,42 -63,53 -31,16 -37,23 -29,33 9,10 7,15 -9,19 -13,3 -22,17 -26,36 -4,17 -10,31 -15,31 -5,0 -9,9 -9,20 0,11 -6,20 -14,20 -8,0 -17,16 -22,38 -4,22 -9,30 -11,20 -3,-10 -9,-18 -15,-18 -5,0 -8,6 -5,13 3,8 -3,20 -14,28 -25,18 -24,28 4,23 12,-2 17,-2 10,2 -7,3 -9,12 -6,20 7,18 -7,18 -33,0 -27,-19 -158,-10 -150,11 3,8 0,13 -7,12 -33,-4 -41,1 -21,15 10,8 16,18 11,22 -4,4 -7,2 -7,-4 0,-7 -7,-12 -15,-12 -8,0 -15,4 -15,9 0,6 -20,13 -45,17 -51,7 -54,15 -6,16 38,1 42,25 3,25 -42,0 -84,12 -77,23 3,6 1,10 -5,10 -7,0 -10,7 -6,15 3,8 1,15 -5,15 -20,0 3,20 24,21 21,0 21,1 -2,12 -18,9 -25,9 -28,0 -5,-13 -73,5 -73,19 0,4 -7,8 -16,8 -8,0 -13,4 -10,9 3,5 -7,11 -24,13 -21,3 -30,0 -33,-11 -3,-11 -5,-10 -6,4 0,11 6,30 13,41 14,20 13,21 -20,22 -18,1 -34,-2 -34,-6 0,-4 -36,-8 -80,-9 -44,-1 -80,3 -80,7 0,5 -66,8 -147,8 -82,0 -173,2 -203,5 -30,3 -86,8 -125,12 -51,4 -77,3 -95,-8 z"
         inkscape:connector-curvature="0"
         sodipodi:nodetypes="cscsssccccsccccccccsccccsccccsccsscscscscccccsccsccsccccccscccccccccccccscccccsccccsscccccsccccscssccccsccccccscccccccsccccccccccsccccccsscccccsccsssccscsscssscccccccccscccccccscscccccsccccscsccccccsccccsccccscccscccscsscsccscsccccccccsssccsccccccccccsssccscscscccssscscccssssscc"
         style="fill:#ffffff;fill-opacity:1" />
      <path
         id="path5956"
         d="m 2271,5009 c -59,-8 -94,-19 -58,-19 19,0 29,-29 26,-73 -2,-18 0,-37 4,-43 3,-6 13,-46 22,-90 9,-43 18,-87 21,-96 4,-12 0,-18 -10,-18 -9,0 -16,-6 -16,-12 0,-10 -3,-9 -9,1 -7,11 -10,10 -18,-3 -8,-15 -10,-15 -24,1 -8,10 -28,59 -43,108 -16,50 -33,95 -38,102 -5,7 -7,21 -3,33 4,12 2,20 -6,20 -9,0 -8,4 1,15 7,8 9,15 4,15 -5,0 0,8 11,16 19,15 18,16 -15,9 -58,-11 -139,-54 -164,-88 -35,-47 -46,-99 -46,-222 0,-231 58,-460 147,-576 72,-95 248,-156 473,-166 246,-10 422,45 534,169 61,67 130,196 170,318 30,92 43,162 26,140 -9,-12 -10,2 -6,60 4,41 11,77 17,81 7,4 8,19 3,40 -7,33 -8,33 -19,-26 -6,-33 -18,-73 -27,-89 -15,-28 -16,-29 -26,-10 -16,31 -24,133 -14,193 l 9,53 -44,28 c -47,30 -241,96 -308,105 l -40,5 30,-15 c 28,-13 28,-14 6,-15 -16,0 -21,-4 -17,-15 3,-8 2,-15 -2,-16 -4,0 -15,-2 -24,-4 -9,-2 -19,4 -22,12 -4,10 -13,12 -28,8 -19,-6 -21,-5 -11,6 7,7 26,12 42,12 26,0 29,3 20,19 -5,10 -20,18 -32,17 -21,0 -21,-1 -2,-10 14,-6 -3,-8 -53,-5 -41,2 -77,7 -80,11 -4,4 19,5 51,2 31,-3 57,-2 57,2 0,8 -104,21 -168,21 l -34,0 7,-77 c 3,-43 11,-123 16,-177 9,-85 8,-101 -5,-114 -9,-9 -19,-13 -22,-9 -15,15 -68,353 -58,369 6,10 -120,8 -205,-3 z m -183,-135 c 16,-70 78,-276 96,-319 7,-16 19,-46 26,-65 7,-19 17,-39 21,-45 4,-5 14,-42 24,-81 16,-67 16,-73 0,-105 -10,-19 -24,-42 -32,-51 -8,-9 -12,-22 -8,-27 3,-6 1,-11 -4,-11 -6,0 -11,-5 -11,-11 0,-16 -26,-39 -35,-31 -5,4 -5,2 -2,-5 4,-6 0,-19 -9,-27 -16,-17 -39,-22 -30,-7 4,5 -2,7 -13,4 -24,-6 -79,62 -87,109 -4,18 -15,49 -24,68 -22,42 -46,142 -56,227 -7,69 3,94 36,86 33,-9 21,28 -13,40 -10,4 -15,12 -12,17 4,6 2,17 -4,24 -18,22 -7,146 18,194 21,41 75,85 96,79 6,-2 16,-30 23,-63 z"
         inkscape:connector-curvature="0"
         style="fill:#ffffff;fill-opacity:1" />
      <path
         id="path5958"
         d="m 4508,4994 c -5,-4 -8,-36 -8,-72 0,-35 -7,-120 -15,-189 -9,-69 -14,-128 -11,-130 2,-3 8,16 11,41 4,25 11,44 15,41 9,-6 20,29 20,66 0,15 6,29 13,32 10,4 13,-9 14,-52 0,-31 2,-74 3,-96 4,-43 -6,-108 -20,-140 -5,-11 -11,-39 -14,-62 -2,-23 -7,-46 -10,-52 -10,-15 13,-24 29,-11 7,6 17,26 20,43 17,86 51,197 61,197 7,0 15,10 19,23 7,21 8,20 14,-8 7,-29 7,-29 19,17 14,54 15,68 5,67 -25,-4 -33,4 -33,31 0,19 5,29 13,28 6,-2 11,2 10,8 -1,6 5,11 12,11 10,0 13,-8 9,-26 l -6,-26 14,25 c 13,22 12,27 -5,43 -11,9 -15,17 -9,17 7,0 12,10 12,23 0,13 9,41 19,63 15,30 17,42 8,53 -9,12 -9,13 1,7 7,-4 12,-2 12,4 0,7 7,10 15,6 8,-3 45,-8 82,-12 38,-3 97,-12 133,-19 73,-15 89,-13 36,5 -77,25 -472,61 -488,44 z"
         inkscape:connector-curvature="0"
         style="fill:#ffffff;fill-opacity:1" />
      <path
         id="path5960"
         d="m 4201,4958 c -29,-6 -45,-16 -48,-29 -3,-10 -13,-19 -22,-19 -9,0 -23,-9 -31,-20 -14,-20 -37,-29 -25,-10 4,6 -1,7 -11,3 -13,-5 -16,-3 -11,10 9,24 -9,21 -79,-12 -76,-36 -126,-93 -142,-161 -16,-67 -15,-100 3,-202 32,-186 111,-360 205,-455 115,-117 244,-163 478,-170 302,-10 482,49 572,188 97,151 166,521 126,679 -13,51 -25,74 -57,105 l -41,40 16,-32 c 19,-38 21,-54 4,-30 -12,16 -13,15 -13,-7 0,-19 4,-23 23,-20 16,3 23,1 20,-8 -3,-7 1,-17 9,-23 20,-15 32,-141 22,-241 -13,-136 -31,-222 -46,-228 -7,-3 -13,-1 -13,4 0,6 -4,10 -10,10 -5,0 -10,-7 -10,-15 0,-8 4,-15 8,-15 13,0 -2,-77 -27,-143 -63,-164 -193,-233 -456,-244 -66,-3 -118,-3 -115,0 4,4 34,7 67,9 56,2 61,4 52,20 -5,10 -14,18 -20,18 -16,0 1,21 24,29 19,7 19,9 -11,27 -18,10 -32,21 -32,24 0,3 -16,4 -35,2 -22,-3 -35,0 -35,7 0,7 4,10 8,7 5,-3 9,1 9,9 0,8 -4,12 -9,9 -14,-9 -47,26 -41,42 3,10 0,12 -10,9 -19,-8 -29,31 -12,45 10,8 14,7 18,-7 4,-14 5,-14 6,4 0,12 -7,26 -16,32 -16,8 -16,11 4,28 20,17 27,37 24,72 -1,9 -9,12 -25,9 -14,-3 -28,-2 -33,1 -14,10 -33,50 -33,69 0,10 -6,24 -12,31 -11,10 -10,12 2,9 25,-5 25,47 0,70 -21,19 -21,21 -6,133 20,154 23,189 16,189 -3,0 -14,-59 -23,-131 -19,-141 -34,-177 -56,-128 -7,15 -13,37 -14,48 -1,12 -4,21 -8,21 -4,0 -4,17 1,38 4,20 6,62 4,92 -1,30 -3,68 -3,83 -1,16 -5,26 -11,22 -5,-3 -10,-1 -10,4 0,6 7,11 15,11 8,0 15,7 15,15 0,17 -2,18 -24,9 -9,-3 -16,-12 -16,-20 0,-8 -4,-14 -9,-14 -5,0 -9,25 -8,55 3,62 3,62 -82,43 z"
         inkscape:connector-curvature="0"
         style="fill:#ffffff;fill-opacity:1" />
      <path
         id="path5962"
         d="m 5356,4600 c -13,-33 -14,-52 -6,-112 18,-122 -2,-188 -56,-188 -16,0 -28,-8 -36,-25 -24,-54 24,-43 88,20 54,54 64,79 64,158 0,57 -21,171 -33,183 -2,3 -12,-13 -21,-36 z"
         inkscape:connector-curvature="0"
         style="fill:#ffffff;fill-opacity:1" />
      <path
         id="path5966"
         d="m 4959,3553 c -1,-13 -2,-29 -3,-35 -1,-7 -4,-15 -8,-18 -4,-3 -11,-30 -16,-60 -10,-54 -20,-89 -50,-163 -14,-35 -14,-39 5,-60 17,-18 22,-41 28,-122 4,-63 15,-126 31,-170 30,-88 22,-99 -66,-100 -51,0 -63,4 -86,27 -25,24 -27,33 -26,95 0,38 6,81 11,95 10,26 11,27 41,11 18,-9 41,-12 57,-9 24,7 25,9 18,54 -8,54 -13,62 -25,42 -8,-13 -10,-12 -10,3 0,9 7,17 17,17 14,0 15,2 4,13 -10,10 -15,8 -28,-8 -15,-20 -15,-20 -8,3 10,34 -8,26 -27,-13 -10,-19 -70,-115 -135,-213 -65,-98 -134,-206 -153,-240 -45,-80 -185,-298 -217,-337 -14,-16 -51,-59 -83,-95 -32,-36 -94,-106 -139,-156 -94,-108 -187,-181 -291,-230 -41,-20 -82,-39 -90,-44 -8,-4 -76,-6 -150,-5 -108,1 -157,7 -247,29 -174,42 -244,98 -402,316 -33,47 -69,96 -80,110 -67,90 -125,190 -306,529 -65,120 -90,160 -97,150 -8,-11 -8,-10 -4,4 6,19 -2,37 -46,101 -27,38 -28,38 -28,12 0,-14 9,-43 20,-63 11,-21 20,-44 20,-51 0,-7 7,-15 15,-18 18,-7 20,-30 3,-38 -10,-5 -10,-7 0,-12 23,-11 43,-37 38,-49 -3,-8 1,-16 8,-18 7,-3 13,-19 14,-37 1,-36 11,-90 20,-105 4,-5 5,-22 3,-37 -1,-16 2,-28 7,-28 13,0 22,-36 11,-47 -9,-9 15,-118 30,-137 4,-6 13,-33 20,-59 16,-68 50,-135 70,-142 9,-2 38,-25 65,-50 30,-27 57,-43 70,-42 15,1 21,-4 22,-20 2,-28 21,-52 50,-63 13,-5 24,-21 27,-40 4,-17 11,-29 16,-26 5,4 26,-4 46,-16 30,-17 41,-19 56,-10 23,15 49,16 49,2 0,-5 -7,-10 -15,-10 -8,0 -15,-9 -15,-20 0,-11 5,-20 11,-20 5,0 8,-3 5,-8 -2,-4 2,-15 9,-25 11,-16 13,-16 19,-1 3,9 3,21 -1,27 -4,7 1,6 10,-2 10,-8 15,-16 13,-19 -10,-10 36,-63 50,-58 9,4 18,-4 24,-19 5,-14 16,-25 24,-25 7,0 16,-7 20,-15 8,-22 24,-18 39,11 l 14,26 13,-31 c 7,-17 20,-32 29,-32 56,-5 80,-2 114,14 36,17 40,17 51,2 8,-12 19,-15 39,-10 15,4 27,12 27,17 0,7 5,7 13,0 7,-6 23,-9 34,-6 14,4 28,-1 41,-14 l 20,-20 12,29 c 13,31 26,37 33,17 3,-10 8,-9 22,2 17,14 18,13 12,-2 -4,-12 -2,-15 9,-11 7,3 14,9 14,14 0,5 9,9 19,9 11,0 21,5 23,11 2,5 12,11 23,13 11,2 20,9 20,17 0,8 12,15 30,17 34,3 115,41 115,54 0,4 5,8 11,8 10,0 91,63 131,103 10,9 24,17 32,17 7,0 16,9 19,21 4,15 13,20 34,19 43,-3 47,-1 32,17 -13,15 -12,16 9,11 41,-11 78,19 131,105 28,45 51,88 51,94 0,7 7,13 15,13 9,0 15,9 15,24 0,13 7,29 15,36 8,7 15,18 15,24 0,6 6,23 14,38 8,15 17,40 21,57 4,17 11,29 16,25 5,-3 9,3 9,13 0,10 16,43 35,73 48,77 105,192 105,212 0,10 5,18 10,18 6,0 9,4 8,8 -3,9 34,82 42,82 3,0 17,-28 31,-63 33,-77 72,-107 138,-107 25,0 53,5 61,10 10,6 11,10 3,10 -20,0 -9,44 12,48 27,6 41,-14 24,-34 -12,-16 -12,-17 1,-9 8,6 18,10 23,11 4,1 9,2 11,3 3,0 -2,17 -10,36 -13,32 -13,36 1,41 21,8 45,-14 38,-33 -10,-25 20,-10 33,16 12,23 -3,74 -51,176 -18,38 -32,148 -45,335 -10,141 -25,234 -31,183 z"
         inkscape:connector-curvature="0"
         style="fill:#ffffff;fill-opacity:1" />
      <path
         id="path5968"
         d="m 5899,1973 c -3,-25 5,-69 18,-101 8,-20 17,-57 20,-81 2,-24 9,-53 15,-64 6,-11 12,-47 14,-80 2,-33 11,-71 20,-86 12,-17 14,-26 6,-29 -15,-5 -16,-39 -2,-47 15,-9 12,-25 -4,-25 -10,0 -14,-22 -14,-97 0,-54 0,-126 -1,-161 0,-47 -4,-64 -15,-68 -9,-3 -13,-10 -10,-15 3,-5 1,-9 -4,-9 -10,0 -39,-84 -45,-127 -2,-11 -9,-28 -16,-37 -7,-8 -10,-20 -6,-26 4,-7 -2,-14 -14,-17 -12,-3 -21,-9 -21,-14 0,-5 -20,-36 -44,-68 -41,-56 -43,-62 -38,-113 6,-63 22,-99 69,-147 30,-31 32,-37 19,-47 -24,-17 -18,-84 8,-84 18,-1 48,-75 41,-103 -4,-14 -2,-42 4,-63 7,-26 7,-42 0,-50 -6,-7 -7,-28 -4,-48 4,-20 7,-39 7,-43 -1,-5 8,-11 19,-15 15,-6 19,-16 18,-45 -1,-21 -7,-44 -12,-51 -8,-9 76,-12 408,-12 l 417,0 -5,312 -4,313 -37,125 c -46,154 -91,327 -106,411 -6,34 -25,89 -41,121 -16,31 -29,65 -29,75 0,22 -73,178 -116,248 -16,28 -38,72 -48,99 -23,61 -122,164 -191,198 -27,14 -93,35 -145,47 -52,12 -103,25 -112,27 -10,3 -18,2 -19,-3 z"
         inkscape:connector-curvature="0"
         style="fill:#ffffff;fill-opacity:1" />
      <path
         id="path5970"
         d="m 1120,1904 c -173,-29 -217,-40 -282,-71 -89,-41 -170,-119 -230,-218 -33,-55 -97,-213 -118,-290 -5,-16 -18,-55 -30,-85 -12,-30 -32,-86 -46,-124 -13,-38 -27,-74 -32,-80 -5,-6 -19,-40 -31,-76 C 339,924 325,886 320,875 316,864 302,815 290,765 278,716 257,637 243,590 204,454 143,231 126,155 117,117 105,69 100,49 94,29 90,10 90,6 90,3 356,0 680,0 c 530,0 590,2 590,16 0,8 7,22 15,30 21,21 19,40 -6,65 l -21,21 21,38 c 23,41 26,54 11,45 -5,-3 -10,-2 -10,4 0,5 8,15 18,20 12,8 14,13 5,19 -15,9 -13,91 2,89 5,-1 11,10 13,26 2,15 -1,27 -7,27 -6,0 -8,12 -5,29 4,20 2,30 -10,34 -20,8 -21,47 -1,47 11,0 14,7 9,24 -3,13 -1,27 5,30 14,9 14,49 0,63 -7,7 -10,36 -7,77 2,40 0,68 -7,71 -6,3 -6,7 3,11 7,3 12,24 12,49 0,34 -4,44 -20,48 -25,6 -26,22 -2,43 13,11 17,27 16,62 -1,25 -7,48 -12,50 -7,2 -7,14 -1,34 5,17 6,42 3,55 -4,12 -3,31 2,40 11,27 12,75 1,98 -11,22 -13,92 -4,102 15,14 6,25 -10,12 -15,-13 -15,-12 -5,8 7,12 12,32 12,45 0,13 6,35 14,49 13,26 14,59 1,90 -3,10 1,24 11,34 16,16 16,18 1,27 -23,12 -21,29 7,80 23,43 45,140 42,188 -1,14 3,28 9,32 19,14 -48,6 -255,-28 z"
         inkscape:connector-curvature="0"
         style="fill:#ffffff;fill-opacity:1" />
      <path
         id="path5972"
         d="m 4973,1569 c -3,-12 -11,-18 -19,-15 -19,7 -55,-34 -49,-55 4,-11 -2,-19 -17,-23 -13,-4 -54,-47 -93,-97 -38,-49 -86,-104 -105,-122 -19,-17 -54,-51 -76,-74 -23,-24 -49,-43 -58,-43 -15,0 -18,-8 -20,-65 -2,-25 -46,-35 -46,-10 0,11 -9,6 -27,-17 -41,-49 -57,-60 -63,-42 -4,9 -16,1 -39,-27 -19,-22 -40,-38 -47,-35 -7,3 -20,-6 -30,-20 -11,-13 -26,-24 -34,-24 -9,0 -22,-6 -29,-12 -10,-10 -15,-10 -18,-1 -2,6 -22,-5 -46,-28 -23,-21 -43,-34 -45,-29 -5,15 -19,12 -39,-9 -16,-16 -59,-34 -89,-36 -6,0 -23,-8 -38,-18 -15,-10 -33,-16 -41,-14 -7,3 -16,2 -21,-2 -5,-4 -45,-16 -89,-25 -44,-10 -92,-25 -107,-33 -21,-10 -37,-12 -62,-5 -22,7 -53,6 -89,-2 -55,-11 -56,-11 -39,-32 9,-12 27,-25 40,-29 12,-3 22,-13 22,-21 0,-9 5,-12 11,-8 6,3 30,8 53,9 23,1 52,7 64,14 12,7 27,9 32,6 13,-8 90,37 90,53 0,6 8,12 18,12 10,0 24,6 31,13 11,10 13,9 8,-5 -10,-29 11,-31 40,-4 24,23 52,30 101,29 6,-1 12,3 12,7 0,4 18,13 40,20 31,10 40,18 40,35 0,19 4,22 34,18 42,-4 84,11 93,34 10,26 25,34 54,28 17,-4 30,0 39,10 7,8 23,15 36,15 14,0 35,13 51,30 14,17 34,30 44,30 10,0 26,14 36,30 15,26 22,30 46,24 24,-5 28,-3 26,13 -3,26 16,69 25,55 4,-6 13,-9 21,-5 8,3 15,0 15,-6 0,-24 19,-9 22,17 2,15 8,27 15,27 6,0 15,3 19,8 4,4 15,7 24,7 21,0 50,31 50,53 0,8 9,18 19,22 11,3 23,14 26,25 3,10 21,25 40,34 21,10 32,22 29,30 -3,8 -1,17 5,20 6,4 8,13 5,21 -3,7 3,22 13,32 10,10 31,52 47,93 16,41 32,77 36,80 8,6 19,60 13,60 -3,0 -7,-9 -10,-21 z"
         inkscape:connector-curvature="0"
         style="fill:#ffffff;fill-opacity:1" />
      <path
         id="path5974"
         d="m 2554,868 c 7,-36 52,-82 73,-74 7,3 17,-3 22,-13 6,-9 28,-30 51,-46 26,-18 43,-39 47,-56 6,-31 27,-43 51,-30 12,7 19,4 27,-12 8,-17 20,-22 51,-23 23,0 50,-4 60,-9 33,-14 76,-16 90,-4 9,8 14,8 14,1 0,-19 40,-24 64,-9 20,14 23,13 34,-4 7,-10 18,-16 26,-13 8,3 17,1 21,-5 3,-6 19,-11 35,-11 16,0 31,-4 35,-9 7,-13 45,-5 62,12 17,16 6,77 -13,77 -8,0 -14,-7 -14,-17 0,-14 -2,-14 -20,2 -18,16 -20,16 -20,2 0,-21 -16,-22 -27,-3 -10,17 -75,36 -101,29 -12,-3 -22,4 -32,22 -9,17 -16,22 -21,13 -4,-7 -5,-17 -1,-23 3,-5 -2,-4 -11,4 -9,7 -17,20 -17,27 0,8 -5,14 -10,14 -6,0 -9,-5 -8,-11 2,-6 -3,-14 -9,-16 -7,-3 -13,0 -13,6 0,6 -4,11 -10,11 -5,0 -10,-8 -10,-17 0,-13 -8,-9 -27,16 -24,31 -27,32 -34,15 -7,-18 -8,-18 -8,-1 -1,10 -6,17 -13,15 -15,-5 -55,32 -67,63 -7,18 -10,20 -10,6 -1,-17 -3,-17 -30,2 -16,12 -34,21 -40,21 -6,0 -11,5 -11,11 0,7 -13,10 -33,7 -22,-2 -39,2 -52,14 -10,10 -24,18 -32,18 -7,0 -13,5 -13,12 0,6 -3,9 -6,5 -3,-3 -17,-1 -31,4 -25,9 -25,8 -19,-23 z"
         inkscape:connector-curvature="0"
         style="fill:#ffffff;fill-opacity:1" />
      <path
         id="path5976"
         d="m 5330,282 c 0,-10 5,-23 12,-30 9,-9 8,-12 -5,-12 -9,0 -17,-5 -17,-11 0,-7 -11,-9 -30,-5 -23,4 -32,1 -37,-10 -3,-8 -12,-13 -20,-10 -9,4 -13,1 -10,-6 2,-7 10,-12 16,-10 6,1 11,-5 11,-13 0,-17 -35,-21 -45,-5 -4,6 -11,8 -16,4 -5,-3 -7,-10 -3,-15 3,-5 9,-7 14,-4 4,3 14,-3 21,-12 11,-13 11,-17 2,-20 -22,-8 -15,-36 6,-30 23,6 49,-39 31,-57 -7,-7 -10,-5 -10,7 0,14 -29,24 -44,15 -3,-2 -17,8 -32,22 -21,20 -26,21 -21,7 4,-10 7,-24 7,-32 0,-7 20,-18 44,-24 25,-6 48,-15 51,-21 3,-5 18,-10 32,-10 25,0 25,2 20,45 -6,42 -5,47 18,57 31,14 33,48 5,73 -19,17 -20,17 -21,-1 0,-11 -3,-14 -6,-6 -3,7 -2,19 1,28 4,11 10,12 25,4 17,-8 20,-6 25,18 3,15 4,36 2,47 -3,11 -5,23 -5,28 -2,16 -21,6 -21,-11 z"
         inkscape:connector-curvature="0"
         style="fill:#ffffff;fill-opacity:1" />
    </g>
  </g>
  <g
     inkscape:groupmode="layer"
     id="layer2"
     inkscape:label="Layer 2"
     style="display:inline" />
</svg>
