<svg xmlns="http://www.w3.org/2000/svg" xmlns:xlink="http://www.w3.org/1999/xlink" width="60mm" height="60mm" viewBox="0 0 212.598 212.598"><defs><linearGradient gradientTransform="matrix(.10171 0 0 .10255 53.668 953.93)" xlink:href="#a" id="f" x1="286.408" y1="133.807" x2="205.833" y2="191.731" gradientUnits="userSpaceOnUse"/><linearGradient id="a"><stop offset="0" stop-color="#0a1f2b"/><stop offset="1" stop-color="#121894"/></linearGradient><linearGradient gradientTransform="translate(141.448 1757.145) scale(.2008)" xlink:href="#b" id="e" x1="166.643" y1="175.934" x2="271.929" y2="197.362" gradientUnits="userSpaceOnUse"/><linearGradient id="b"><stop offset="0" stop-color="#7e7e7f"/><stop offset="1" stop-color="#00033e"/></linearGradient><linearGradient gradientTransform="translate(-115.99 772.16)" xlink:href="#c" id="d" x1="166.643" y1="175.934" x2="271.929" y2="197.362" gradientUnits="userSpaceOnUse"/><linearGradient id="c"><stop offset="0" stop-color="#1488cc"/><stop offset="1" stop-color="#2b32b2"/></linearGradient></defs><g transform="translate(0 -839.764)"><circle cx="104.723" cy="948.093" r="53.571" opacity=".545" fill="url(#d)"/><path d="M145.65 913.323c20.438 6.062 33.978 16.65 33.978 28.698 0 18.825-33.056 34.086-73.833 34.086s-73.834-15.26-73.834-34.086c0-11.556 12.457-21.769 31.51-27.933" fill="none" stroke="#000" stroke-width="1.124" stroke-linejoin="round" stroke-opacity=".858"/><path d="M131.41 901.722c21.278-1.306 37.625 4.003 41.752 15.322 6.45 17.686-19.379 43.347-57.689 57.316-38.31 13.969-74.593 10.956-81.042-6.73-3.96-10.857 4.245-24.72 20.034-37.038" fill="none" stroke="#000" stroke-width="1.124" stroke-linejoin="round" stroke-opacity=".858"/><circle cx="154.723" cy="901.307" r="10.757" fill="#fff"/><circle cx="154.366" cy="902.021" r="10.757" opacity=".545" fill="url(#e)"/><ellipse cx="76.159" cy="971.953" rx="5.48" ry="5.556" fill="#fff"/><ellipse cx="76.118" cy="971.972" rx="5.449" ry="5.494" opacity=".545" fill="url(#f)"/></g></svg>