<svg xmlns="http://www.w3.org/2000/svg" xmlns:xlink="http://www.w3.org/1999/xlink" width="60mm" height="60mm" viewBox="0 0 212.598 212.598"><defs><linearGradient gradientTransform="matrix(.12156 0 0 .1149 1835.692 -428.047)" xlink:href="#a" id="f" x1="166.643" y1="175.934" x2="271.929" y2="197.362" gradientUnits="userSpaceOnUse"/><linearGradient id="a"><stop offset="0" stop-color="#7e7e7f"/><stop offset="1" stop-color="#00033e"/></linearGradient><linearGradient gradientTransform="matrix(.20248 0 0 .21359 -1849.837 -161.64)" xlink:href="#a" id="e" x1="166.643" y1="175.934" x2="271.929" y2="197.362" gradientUnits="userSpaceOnUse"/><linearGradient gradientTransform="matrix(.12156 0 0 .1149 180.086 1790.37)" xlink:href="#a" id="d" x1="166.643" y1="175.934" x2="271.929" y2="197.362" gradientUnits="userSpaceOnUse"/><linearGradient gradientTransform="translate(144.89 -885.111)" xlink:href="#b" id="c" x1="-463.918" y1="-36.668" x2="-381.047" y2="-36.668" gradientUnits="userSpaceOnUse"/><linearGradient id="b"><stop offset="0" stop-color="#bf005a"/><stop offset="1" stop-color="#dce2c3"/></linearGradient></defs><g transform="translate(0 -839.764)"><ellipse cx="-277.592" cy="-921.779" rx="41.061" ry="39.25" transform="rotate(-170.224)" opacity=".545" fill="url(#c)"/><ellipse cx="154.071" cy="915.377" rx="6.512" ry="6.155" opacity=".545" fill="url(#d)"/><path d="M149.375 919.92l-5.808 5.555z" fill="none" stroke="#000"/><ellipse cx="-909.281" cy="-51.443" rx="10.847" ry="11.442" transform="matrix(-.13954 -.99022 .99375 -.11163 0 0)" opacity=".545" fill="url(#e)"/><path d="M83.508 913.973l9.286 10.357z" fill="none" stroke="#000"/><ellipse cx="978.596" cy="-256.64" rx="6.512" ry="6.155" transform="rotate(96.328)" opacity=".545" fill="url(#f)"/><path d="M143.22 995.752l-4.881-6.386z" fill="none" stroke="#000"/><path d="M150.576 934.563c19.082-2.594 32.67-1.174 34.404 4.58 2.71 8.99-24.545 25.156-60.876 36.107-36.332 10.951-67.98 12.54-70.69 3.55-1.664-5.519 7.965-13.742 24.053-21.802" fill="none" stroke="#000" stroke-width=".765" stroke-linejoin="round" stroke-opacity=".858"/></g></svg>