<svg xmlns="http://www.w3.org/2000/svg" xmlns:xlink="http://www.w3.org/1999/xlink" width="60mm" height="60mm" viewBox="0 0 212.598 212.598"><defs><linearGradient xlink:href="#a" id="bR" x1="370.804" y1="363.043" x2="374.912" y2="363.043" gradientUnits="userSpaceOnUse" gradientTransform="matrix(.26112 -.05039 .0446 .30175 81.513 853.936)"/><linearGradient id="a"><stop offset="0" stop-color="#473a3a"/><stop offset="1" stop-color="#6b3737"/></linearGradient><linearGradient xlink:href="#a" id="bQ" x1="370.804" y1="363.043" x2="374.912" y2="363.043" gradientUnits="userSpaceOnUse" gradientTransform="matrix(.39615 -.10251 .06766 .61392 27.09 762.794)"/><linearGradient xlink:href="#a" id="bP" x1="370.804" y1="363.043" x2="374.912" y2="363.043" gradientUnits="userSpaceOnUse" gradientTransform="matrix(.3692 .17645 -.34327 .51346 184.27 697.694)"/><linearGradient xlink:href="#a" id="bO" x1="370.804" y1="363.043" x2="374.912" y2="363.043" gradientUnits="userSpaceOnUse" gradientTransform="rotate(-171.84 305.547 661.298)"/><linearGradient xlink:href="#a" id="bN" x1="370.804" y1="363.043" x2="374.912" y2="363.043" gradientUnits="userSpaceOnUse" gradientTransform="matrix(-.44618 -.57011 -.63905 -1.46244 590.946 1707.653)"/><linearGradient xlink:href="#a" id="bM" x1="370.804" y1="363.043" x2="374.912" y2="363.043" gradientUnits="userSpaceOnUse" gradientTransform="matrix(.17944 .2939 -.35652 .21907 255.392 777.4)"/><linearGradient xlink:href="#a" id="bL" x1="370.804" y1="363.043" x2="374.912" y2="363.043" gradientUnits="userSpaceOnUse" gradientTransform="matrix(-.0341 .47617 -.19372 -.06703 256.894 819.492)"/><linearGradient xlink:href="#a" id="bK" x1="370.804" y1="363.043" x2="374.912" y2="363.043" gradientUnits="userSpaceOnUse" gradientTransform="matrix(-.07544 -.41253 .22006 -.1443 121.158 1180.42)"/><linearGradient xlink:href="#a" id="bJ" x1="370.804" y1="363.043" x2="374.912" y2="363.043" gradientUnits="userSpaceOnUse" gradientTransform="matrix(.3957 .15484 -2.4127 -1.76347 783.649 1549.823)"/><linearGradient xlink:href="#a" id="bI" x1="370.804" y1="363.043" x2="374.912" y2="363.043" gradientUnits="userSpaceOnUse" gradientTransform="matrix(-.08934 -.39933 .61582 -.0473 -146.363 1133.017)"/><linearGradient xlink:href="#a" id="bH" x1="370.804" y1="363.043" x2="374.912" y2="363.043" gradientUnits="userSpaceOnUse" gradientTransform="matrix(-.08934 -.39933 .61582 -.0473 -146.994 1133.017)"/><linearGradient xlink:href="#a" id="bG" x1="370.804" y1="363.043" x2="374.912" y2="363.043" gradientUnits="userSpaceOnUse" gradientTransform="matrix(-.2231 .26231 -.31953 -.27018 256.594 967.661)"/><linearGradient xlink:href="#a" id="bF" x1="370.804" y1="363.043" x2="374.912" y2="363.043" gradientUnits="userSpaceOnUse" gradientTransform="matrix(.1499 -.31001 .37724 .18107 -138.147 1019.202)"/><linearGradient xlink:href="#a" id="bE" x1="370.804" y1="363.043" x2="374.912" y2="363.043" gradientUnits="userSpaceOnUse" gradientTransform="rotate(-24.798 1578.999 1411.175)"/><linearGradient xlink:href="#a" id="bD" x1="371.366" y1="363.614" x2="374.912" y2="363.043" gradientUnits="userSpaceOnUse" gradientTransform="matrix(-.57645 .05538 .02481 -.82415 228.37 1226.417)"/><linearGradient xlink:href="#a" id="bC" x1="371.366" y1="363.614" x2="374.912" y2="363.043" gradientUnits="userSpaceOnUse" gradientTransform="matrix(-.13438 .5633 -.77166 -.2905 352.565 834.762)"/><linearGradient xlink:href="#a" id="bB" x1="370.804" y1="363.043" x2="374.912" y2="363.043" gradientUnits="userSpaceOnUse" gradientTransform="matrix(-.08987 .3992 -.57697 -.2204 263.577 873.692)"/><linearGradient xlink:href="#a" id="bA" x1="370.804" y1="363.043" x2="374.912" y2="363.043" gradientUnits="userSpaceOnUse" gradientTransform="rotate(-154.702 280.618 701.736)"/><linearGradient xlink:href="#a" id="bz" x1="370.804" y1="363.043" x2="374.912" y2="363.043" gradientUnits="userSpaceOnUse" gradientTransform="matrix(-.00305 .34434 -.41844 -.0025 174.9 817.722)"/><linearGradient xlink:href="#a" id="by" x1="370.804" y1="363.043" x2="374.912" y2="363.043" gradientUnits="userSpaceOnUse" gradientTransform="rotate(129.904 62.684 571.384)"/><linearGradient xlink:href="#a" id="bx" x1="371.366" y1="363.614" x2="374.912" y2="363.043" gradientUnits="userSpaceOnUse" gradientTransform="matrix(.4975 -.2964 .32974 .75572 -284.91 779.373)"/><linearGradient xlink:href="#a" id="bw" x1="371.366" y1="363.614" x2="374.912" y2="363.043" gradientUnits="userSpaceOnUse" gradientTransform="matrix(-.11922 -.5667 .82179 -.06711 -236.363 1183.335)"/><linearGradient xlink:href="#a" id="bv" x1="370.804" y1="363.043" x2="374.912" y2="363.043" gradientUnits="userSpaceOnUse" gradientTransform="matrix(-.08934 -.39933 .61582 -.0473 -156.569 1127.533)"/><linearGradient xlink:href="#a" id="bu" x1="370.804" y1="363.043" x2="374.912" y2="363.043" gradientUnits="userSpaceOnUse" gradientTransform="translate(-347.256 576.191)"/><linearGradient xlink:href="#a" id="bt" x1="370.804" y1="363.043" x2="374.912" y2="363.043" gradientUnits="userSpaceOnUse" gradientTransform="matrix(-.17914 -.29409 .35674 -.2187 -42.089 1136.348)"/><linearGradient xlink:href="#a" id="bs" x1="370.804" y1="363.043" x2="374.912" y2="363.043" gradientUnits="userSpaceOnUse" gradientTransform="matrix(.24738 .23954 -.29022 .30144 32.833 751.501)"/><linearGradient xlink:href="#a" id="br" x1="370.804" y1="363.043" x2="374.912" y2="363.043" gradientUnits="userSpaceOnUse" gradientTransform="rotate(83.475 -132.068 459.733)"/><linearGradient xlink:href="#a" id="bq" x1="371.366" y1="363.614" x2="374.912" y2="363.043" gradientUnits="userSpaceOnUse" gradientTransform="matrix(.12816 -.56475 .77481 .28197 -305.605 1062.434)"/><linearGradient xlink:href="#a" id="bp" x1="371.366" y1="363.614" x2="374.912" y2="363.043" gradientUnits="userSpaceOnUse" gradientTransform="matrix(-.49276 -.30422 .51779 -.64167 19.124 1299.115)"/><linearGradient xlink:href="#a" id="bo" x1="370.804" y1="363.043" x2="374.912" y2="363.043" gradientUnits="userSpaceOnUse" gradientTransform="matrix(-.3509 -.2105 .39019 -.47878 10.986 1205.64)"/><linearGradient xlink:href="#a" id="bn" x1="370.804" y1="363.043" x2="374.912" y2="363.043" gradientUnits="userSpaceOnUse" gradientTransform="rotate(-46.43 882.383 1065.975)"/><linearGradient xlink:href="#a" id="bm" x1="370.804" y1="363.043" x2="374.912" y2="363.043" gradientUnits="userSpaceOnUse" gradientTransform="matrix(-.29613 -.17574 .21253 -.36045 67.502 1154.761)"/><linearGradient xlink:href="#a" id="bl" x1="370.804" y1="363.043" x2="374.912" y2="363.043" gradientUnits="userSpaceOnUse" gradientTransform="rotate(-109.915 411.565 780.148)"/><linearGradient xlink:href="#a" id="bk" x1="371.366" y1="363.614" x2="374.912" y2="363.043" gradientUnits="userSpaceOnUse" gradientTransform="matrix(.12546 .56535 -.821 .07617 279.24 718.197)"/><linearGradient xlink:href="#a" id="bj" x1="371.366" y1="363.614" x2="374.912" y2="363.043" gradientUnits="userSpaceOnUse" gradientTransform="matrix(.5755 .06447 -.19393 .8014 -115.487 642.978)"/><linearGradient xlink:href="#a" id="bi" x1="370.804" y1="363.043" x2="374.912" y2="363.043" gradientUnits="userSpaceOnUse" gradientTransform="matrix(.4072 .04037 -.14818 .5996 -68.185 724.011)"/><linearGradient xlink:href="#a" id="bh" x1="370.804" y1="363.043" x2="374.912" y2="363.043" gradientUnits="userSpaceOnUse" gradientTransform="rotate(120.181 31.174 562.736)"/><linearGradient xlink:href="#a" id="bg" x1="371.366" y1="363.614" x2="374.912" y2="363.043" gradientUnits="userSpaceOnUse" gradientTransform="matrix(.33504 .47235 -.72709 .38882 170.851 644.388)"/><linearGradient xlink:href="#a" id="bf" x1="370.804" y1="363.043" x2="374.912" y2="363.043" gradientUnits="userSpaceOnUse" gradientTransform="matrix(-.34134 -.04543 .05402 -.41494 151.114 1129.346)"/><linearGradient xlink:href="#a" id="be" x1="370.804" y1="363.043" x2="374.912" y2="363.043" gradientUnits="userSpaceOnUse" gradientTransform="rotate(-133.021 337.73 734.73)"/><linearGradient xlink:href="#a" id="bd" x1="371.366" y1="363.614" x2="374.912" y2="363.043" gradientUnits="userSpaceOnUse" gradientTransform="matrix(.23287 .53022 -.79057 .23416 238.25 678.096)"/><linearGradient xlink:href="#a" id="bc" x1="371.366" y1="363.614" x2="374.912" y2="363.043" gradientUnits="userSpaceOnUse" gradientTransform="matrix(.57707 -.04852 -.0346 .8238 -163.568 680.966)"/><linearGradient xlink:href="#a" id="bb" x1="370.804" y1="363.043" x2="374.912" y2="363.043" gradientUnits="userSpaceOnUse" gradientTransform="matrix(.40729 -.03948 -.02891 .61696 -101.43 751.27)"/><linearGradient xlink:href="#a" id="ba" x1="370.804" y1="363.043" x2="374.912" y2="363.043" gradientUnits="userSpaceOnUse" gradientTransform="rotate(97.074 -57.784 516.488)"/><linearGradient xlink:href="#a" id="aZ" x1="370.804" y1="363.043" x2="374.912" y2="363.043" gradientUnits="userSpaceOnUse" gradientTransform="matrix(-.34312 -.02905 .03411 -.41705 169.137 1127.44)"/><linearGradient xlink:href="#a" id="aY" x1="370.804" y1="363.043" x2="374.912" y2="363.043" gradientUnits="userSpaceOnUse" gradientTransform="rotate(-135.763 335.088 729.756)"/><linearGradient xlink:href="#a" id="aX" x1="371.366" y1="363.614" x2="374.912" y2="363.043" gradientUnits="userSpaceOnUse" gradientTransform="matrix(.25796 .51848 -.77847 .2717 233.58 671.402)"/><linearGradient xlink:href="#a" id="aW" x1="371.366" y1="363.614" x2="374.912" y2="363.043" gradientUnits="userSpaceOnUse" gradientTransform="matrix(.57409 -.07607 .00484 .8245 -167.516 696.394)"/><linearGradient xlink:href="#a" id="aV" x1="370.804" y1="363.043" x2="374.912" y2="363.043" gradientUnits="userSpaceOnUse" gradientTransform="matrix(.40493 -.05892 .00063 .61764 -101.203 761.878)"/><linearGradient xlink:href="#a" id="aU" x1="370.804" y1="363.043" x2="374.912" y2="363.043" gradientUnits="userSpaceOnUse" gradientTransform="rotate(94.333 -67.384 515.758)"/><linearGradient xlink:href="#a" id="aT" x1="370.804" y1="363.043" x2="374.912" y2="363.043" gradientUnits="userSpaceOnUse" gradientTransform="matrix(-.34398 .01588 -.02049 -.41794 199.243 1112.829)"/><linearGradient xlink:href="#a" id="aS" x1="370.804" y1="363.043" x2="374.912" y2="363.043" gradientUnits="userSpaceOnUse" gradientTransform="rotate(-143.246 318.085 717.174)"/><linearGradient xlink:href="#a" id="aR" x1="371.366" y1="363.614" x2="374.912" y2="363.043" gradientUnits="userSpaceOnUse" gradientTransform="matrix(.32329 .48047 -.73646 .37077 204.014 650.752)"/><linearGradient xlink:href="#a" id="aQ" x1="371.366" y1="363.614" x2="374.912" y2="363.043" gradientUnits="userSpaceOnUse" gradientTransform="matrix(.5593 -.15018 .11217 .81686 -190.283 728.815)"/><linearGradient xlink:href="#a" id="aP" x1="370.804" y1="363.043" x2="374.912" y2="363.043" gradientUnits="userSpaceOnUse" gradientTransform="matrix(.39381 -.11115 .08106 .6123 -116.4 785.584)"/><linearGradient xlink:href="#a" id="aO" x1="370.804" y1="363.043" x2="374.912" y2="363.043" gradientUnits="userSpaceOnUse" gradientTransform="rotate(86.85 -102.457 501.345)"/><linearGradient xlink:href="#a" id="aN" x1="370.804" y1="363.043" x2="374.912" y2="363.043" gradientUnits="userSpaceOnUse" gradientTransform="matrix(-.34434 .00265 -.00442 -.41842 202.998 1120.526)"/><linearGradient xlink:href="#a" id="aM" x1="370.804" y1="363.043" x2="374.912" y2="363.043" gradientUnits="userSpaceOnUse" gradientTransform="rotate(-141.044 329.74 720.115)"/><linearGradient xlink:href="#a" id="aL" x1="371.366" y1="363.614" x2="374.912" y2="363.043" gradientUnits="userSpaceOnUse" gradientTransform="matrix(.30459 .49253 -.75016 .3422 226.305 661.531)"/><linearGradient xlink:href="#a" id="aK" x1="371.366" y1="363.614" x2="374.912" y2="363.043" gradientUnits="userSpaceOnUse" gradientTransform="matrix(.56465 -.12858 .0807 .82056 -171.181 720.452)"/><linearGradient xlink:href="#a" id="aJ" x1="370.804" y1="363.043" x2="374.912" y2="363.043" gradientUnits="userSpaceOnUse" gradientTransform="matrix(.3978 -.09594 .05748 .61496 -99.84 781.396)"/><linearGradient xlink:href="#a" id="aI" x1="370.804" y1="363.043" x2="374.912" y2="363.043" gradientUnits="userSpaceOnUse" gradientTransform="rotate(89.052 -86.972 513.588)"/><linearGradient xlink:href="#a" id="aH" x1="370.804" y1="363.043" x2="374.912" y2="363.043" gradientUnits="userSpaceOnUse" gradientTransform="matrix(-.34432 .00428 -.0064 -.4184 213.626 1122.58)"/><linearGradient xlink:href="#a" id="aG" x1="370.804" y1="363.043" x2="374.912" y2="363.043" gradientUnits="userSpaceOnUse" gradientTransform="rotate(-141.315 333.657 717.503)"/><linearGradient xlink:href="#a" id="aF" x1="371.366" y1="363.614" x2="374.912" y2="363.043" gradientUnits="userSpaceOnUse" gradientTransform="matrix(.30691 .49109 -.74853 .34575 234.762 663.481)"/><linearGradient xlink:href="#a" id="aE" x1="371.366" y1="363.614" x2="374.912" y2="363.043" gradientUnits="userSpaceOnUse" gradientTransform="matrix(.56404 -.13125 .08458 .82017 -162.441 724.28)"/><linearGradient xlink:href="#a" id="aD" x1="370.804" y1="363.043" x2="374.912" y2="363.043" gradientUnits="userSpaceOnUse" gradientTransform="matrix(.39734 -.09782 .06038 .61468 -90.812 784.886)"/><linearGradient xlink:href="#a" id="aC" x1="370.804" y1="363.043" x2="374.912" y2="363.043" gradientUnits="userSpaceOnUse" gradientTransform="rotate(88.781 -84.844 519.269)"/><linearGradient xlink:href="#a" id="aB" x1="370.804" y1="363.043" x2="374.912" y2="363.043" gradientUnits="userSpaceOnUse" gradientTransform="matrix(-.34372 .02074 -.0264 -.4176 231.186 1118.095)"/><linearGradient xlink:href="#a" id="aA" x1="370.804" y1="363.043" x2="374.912" y2="363.043" gradientUnits="userSpaceOnUse" gradientTransform="rotate(-144.057 331.838 712.344)"/><linearGradient xlink:href="#a" id="az" x1="371.366" y1="363.614" x2="374.912" y2="363.043" gradientUnits="userSpaceOnUse" gradientTransform="matrix(.33005 .47584 -.73114 .38116 230.338 658.51)"/><linearGradient xlink:href="#a" id="ay" x1="371.366" y1="363.614" x2="374.912" y2="363.043" gradientUnits="userSpaceOnUse" gradientTransform="matrix(.55711 -.15808 .12372 .81519 -163.502 738.24)"/><linearGradient xlink:href="#a" id="ax" x1="370.804" y1="363.043" x2="374.912" y2="363.043" gradientUnits="userSpaceOnUse" gradientTransform="matrix(.3922 -.11671 .08972 .61109 -89.057 795.35)"/><linearGradient xlink:href="#a" id="aw" x1="370.804" y1="363.043" x2="374.912" y2="363.043" gradientUnits="userSpaceOnUse" gradientTransform="rotate(86.039 -97.644 520.61)"/><linearGradient xlink:href="#a" id="av" x1="370.804" y1="363.043" x2="374.912" y2="363.043" gradientUnits="userSpaceOnUse" gradientTransform="matrix(-.3381 .06533 -.08056 -.41062 258.87 1099.294)"/><linearGradient xlink:href="#a" id="au" x1="370.804" y1="363.043" x2="374.912" y2="363.043" gradientUnits="userSpaceOnUse" gradientTransform="rotate(-151.539 315.377 703.738)"/><linearGradient xlink:href="#a" id="at" x1="371.366" y1="363.614" x2="374.912" y2="363.043" gradientUnits="userSpaceOnUse" gradientTransform="matrix(.38921 .42881 -.67527 .47312 196.916 646.258)"/><linearGradient xlink:href="#a" id="as" x1="371.366" y1="363.614" x2="374.912" y2="363.043" gradientUnits="userSpaceOnUse" gradientTransform="matrix(.53178 -.22929 .22882 .79214 -181.925 774.071)"/><linearGradient xlink:href="#a" id="ar" x1="370.804" y1="363.043" x2="374.912" y2="363.043" gradientUnits="userSpaceOnUse" gradientTransform="matrix(.37366 -.1668 .16853 .5942 -100.676 821)"/><linearGradient xlink:href="#a" id="aq" x1="370.804" y1="363.043" x2="374.912" y2="363.043" gradientUnits="userSpaceOnUse" gradientTransform="rotate(78.557 -137.407 503.993)"/><linearGradient xlink:href="#a" id="ap" x1="370.804" y1="363.043" x2="374.912" y2="363.043" gradientUnits="userSpaceOnUse" gradientTransform="matrix(-.33936 .0584 -.07214 -.41218 265.91 1103.62)"/><linearGradient xlink:href="#a" id="ao" x1="370.804" y1="363.043" x2="374.912" y2="363.043" gradientUnits="userSpaceOnUse" gradientTransform="rotate(-150.367 323.675 704.52)"/><linearGradient xlink:href="#a" id="an" x1="371.366" y1="363.614" x2="374.912" y2="363.043" gradientUnits="userSpaceOnUse" gradientTransform="matrix(.1731 .53068 -.31165 .55805 168.288 574.193)"/><linearGradient xlink:href="#a" id="am" x1="371.366" y1="363.614" x2="374.912" y2="363.043" gradientUnits="userSpaceOnUse" gradientTransform="matrix(.53636 -.21835 .21256 .79665 -168.136 769.446)"/><linearGradient xlink:href="#a" id="al" x1="370.804" y1="363.043" x2="374.912" y2="363.043" gradientUnits="userSpaceOnUse" gradientTransform="matrix(.377 -.15911 .15633 .59752 -87.865 818.028)"/><linearGradient xlink:href="#a" id="ak" x1="370.804" y1="363.043" x2="374.912" y2="363.043" gradientUnits="userSpaceOnUse" gradientTransform="rotate(79.729 -125.564 513.724)"/><linearGradient xlink:href="#a" id="aj" x1="370.804" y1="363.043" x2="374.912" y2="363.043" gradientUnits="userSpaceOnUse" gradientTransform="matrix(-.33908 .06 -.07409 -.41183 276.73 1103.927)"/><linearGradient xlink:href="#a" id="ai" x1="370.804" y1="363.043" x2="374.912" y2="363.043" gradientUnits="userSpaceOnUse" gradientTransform="rotate(-150.637 328.146 703.37)"/><linearGradient xlink:href="#a" id="ah" x1="371.366" y1="363.614" x2="374.912" y2="363.043" gradientUnits="userSpaceOnUse" gradientTransform="matrix(.38241 .43488 -.68264 .46244 223.216 647.467)"/><linearGradient xlink:href="#a" id="ag" x1="371.366" y1="363.614" x2="374.912" y2="363.043" gradientUnits="userSpaceOnUse" gradientTransform="matrix(.53532 -.22089 .21633 .79564 -158.891 771.808)"/><linearGradient xlink:href="#a" id="af" x1="370.804" y1="363.043" x2="374.912" y2="363.043" gradientUnits="userSpaceOnUse" gradientTransform="matrix(.37624 -.16089 .15916 .59678 -78.391 820.01)"/><linearGradient xlink:href="#a" id="ae" x1="370.804" y1="363.043" x2="374.912" y2="363.043" gradientUnits="userSpaceOnUse" gradientTransform="rotate(79.458 -122.847 519.64)"/><linearGradient xlink:href="#a" id="ad" x1="370.804" y1="363.043" x2="374.912" y2="363.043" gradientUnits="userSpaceOnUse" gradientTransform="matrix(-.33582 .07615 -.0937 -.40782 292.07 1093.373)"/><linearGradient xlink:href="#a" id="ac" x1="370.804" y1="363.043" x2="374.912" y2="363.043" gradientUnits="userSpaceOnUse" gradientTransform="matrix(-.22831 -.7354 .11443 -1.46723 182.18 1781.845)"/><linearGradient xlink:href="#a" id="ab" x1="371.366" y1="363.614" x2="374.912" y2="363.043" gradientUnits="userSpaceOnUse" gradientTransform="matrix(.40278 .4161 -.65973 .49456 218.045 643.279)"/><linearGradient xlink:href="#a" id="aa" x1="371.366" y1="363.614" x2="374.912" y2="363.043" gradientUnits="userSpaceOnUse" gradientTransform="matrix(.52415 -.24624 .25414 .78438 -157.677 785.754)"/><linearGradient xlink:href="#a" id="Z" x1="370.804" y1="363.043" x2="374.912" y2="363.043" gradientUnits="userSpaceOnUse" gradientTransform="matrix(.36812 -.1787 .18752 .58848 -74.963 830.05)"/><linearGradient xlink:href="#a" id="Y" x1="370.804" y1="363.043" x2="374.912" y2="363.043" gradientUnits="userSpaceOnUse" gradientTransform="rotate(76.717 -135.28 522.96)"/><linearGradient xlink:href="#a" id="X" x1="370.804" y1="363.043" x2="374.912" y2="363.043" gradientUnits="userSpaceOnUse" gradientTransform="matrix(-.32305 .11924 -.14601 -.39214 317.604 1073.618)"/><linearGradient xlink:href="#a" id="W" x1="370.804" y1="363.043" x2="374.912" y2="363.043" gradientUnits="userSpaceOnUse" gradientTransform="matrix(-.58665 -.55606 .20358 -1.60235 278.725 1766.757)"/><linearGradient xlink:href="#a" id="V" x1="368.848" y1="361.462" x2="374.912" y2="363.043" gradientUnits="userSpaceOnUse" gradientTransform="matrix(-.35215 .45973 -.58644 -.5796 480.708 1017.578)"/><linearGradient xlink:href="#a" id="U" x1="371.366" y1="363.614" x2="374.912" y2="363.043" gradientUnits="userSpaceOnUse" gradientTransform="matrix(.48762 -.3124 .35412 .7446 -170.052 824.097)"/><linearGradient xlink:href="#a" id="T" x1="370.804" y1="363.043" x2="374.912" y2="363.043" gradientUnits="userSpaceOnUse" gradientTransform="matrix(.3417 -.22512 .26256 .55905 -82.274 857.245)"/><linearGradient xlink:href="#a" id="S" x1="370.804" y1="363.043" x2="374.912" y2="363.043" gradientUnits="userSpaceOnUse" gradientTransform="rotate(69.234 -187.733 506.273)"/><linearGradient xlink:href="#a" id="R" x1="370.804" y1="363.043" x2="374.912" y2="363.043" gradientUnits="userSpaceOnUse" gradientTransform="matrix(-.3263 .11 -.1348 -.39613 324.95 1077.983)"/><linearGradient xlink:href="#a" id="Q" x1="370.804" y1="363.043" x2="374.912" y2="363.043" gradientUnits="userSpaceOnUse" gradientTransform="rotate(-159.233 319.366 689.924)"/><linearGradient xlink:href="#a" id="P" x1="371.366" y1="363.614" x2="374.912" y2="363.043" gradientUnits="userSpaceOnUse" gradientTransform="matrix(-.3132 .4871 -.63206 -.52947 493.919 988.742)"/><linearGradient xlink:href="#a" id="O" x1="371.366" y1="363.614" x2="374.912" y2="363.043" gradientUnits="userSpaceOnUse" gradientTransform="matrix(.4963 -.29841 .3328 .75437 -155.416 814.7)"/><linearGradient xlink:href="#a" id="N" x1="370.804" y1="363.043" x2="374.912" y2="363.043" gradientUnits="userSpaceOnUse" gradientTransform="matrix(.34797 -.21531 .24656 .56629 -68.616 850.329)"/><linearGradient xlink:href="#a" id="M" x1="370.804" y1="363.043" x2="374.912" y2="363.043" gradientUnits="userSpaceOnUse" gradientTransform="rotate(70.863 -168.502 515.481)"/><linearGradient xlink:href="#a" id="L" x1="370.804" y1="363.043" x2="374.912" y2="363.043" gradientUnits="userSpaceOnUse" gradientTransform="matrix(-.32578 .11155 -.13668 -.3955 335.688 1076.617)"/><linearGradient xlink:href="#a" id="K" x1="370.804" y1="363.043" x2="374.912" y2="363.043" gradientUnits="userSpaceOnUse" gradientTransform="rotate(-159.504 323.697 688.452)"/><linearGradient xlink:href="#a" id="J" x1="371.366" y1="363.614" x2="374.912" y2="363.043" gradientUnits="userSpaceOnUse" gradientTransform="matrix(.44487 .37075 -.6032 .56212 212.081 632.092)"/><linearGradient xlink:href="#a" id="I" x1="371.366" y1="363.614" x2="374.912" y2="363.043" gradientUnits="userSpaceOnUse" gradientTransform="matrix(.49488 -.30076 .33637 .75279 -145.917 815.608)"/><linearGradient xlink:href="#a" id="H" x1="370.804" y1="363.043" x2="374.912" y2="363.043" gradientUnits="userSpaceOnUse" gradientTransform="matrix(.34695 -.21696 .24924 .56512 -58.95 850.827)"/><linearGradient xlink:href="#a" id="G" x1="370.804" y1="363.043" x2="374.912" y2="363.043" gradientUnits="userSpaceOnUse" gradientTransform="rotate(70.592 -165.148 521.678)"/><linearGradient xlink:href="#a" id="F" x1="370.804" y1="363.043" x2="374.912" y2="363.043" gradientUnits="userSpaceOnUse" gradientTransform="matrix(-.32007 .127 -.15544 -.3885 350.97 1066.874)"/><linearGradient xlink:href="#a" id="E" x1="370.804" y1="363.043" x2="374.912" y2="363.043" gradientUnits="userSpaceOnUse" gradientTransform="rotate(112.964 73.393 602.91)"/><linearGradient xlink:href="#a" id="D" x1="371.366" y1="363.614" x2="374.912" y2="363.043" gradientUnits="userSpaceOnUse" gradientTransform="matrix(.4621 .34904 -.57563 .59033 206.705 630.518)"/><linearGradient xlink:href="#a" id="C" x1="371.366" y1="363.614" x2="374.912" y2="363.043" gradientUnits="userSpaceOnUse" gradientTransform="matrix(.47993 -.32408 .372 .73584 -142.568 829.2)"/><linearGradient xlink:href="#a" id="B" x1="370.804" y1="363.043" x2="374.912" y2="363.043" gradientUnits="userSpaceOnUse" gradientTransform="matrix(.33617 -.2333 .27598 .55255 -54.015 860.22)"/><linearGradient xlink:href="#a" id="A" x1="370.804" y1="363.043" x2="374.912" y2="363.043" gradientUnits="userSpaceOnUse" gradientTransform="matrix(-.52531 .22347 -.23208 -.50584 454.916 1076.184)"/><linearGradient xlink:href="#a" id="z" x1="370.804" y1="363.043" x2="374.912" y2="363.043" gradientUnits="userSpaceOnUse" gradientTransform="matrix(-.30081 .1676 -.2047 -.36495 371.402 1040.371)"/><linearGradient xlink:href="#a" id="y" x1="370.804" y1="363.043" x2="374.912" y2="363.043" gradientUnits="userSpaceOnUse" gradientTransform="rotate(-169.728 303.415 678.11)"/><linearGradient xlink:href="#a" id="x" x1="371.366" y1="363.614" x2="374.912" y2="363.043" gradientUnits="userSpaceOnUse" gradientTransform="matrix(.43364 -.38382 .46465 .68113 -148.886 868.993)"/><linearGradient xlink:href="#a" id="w" x1="370.804" y1="363.043" x2="374.912" y2="363.043" gradientUnits="userSpaceOnUse" gradientTransform="matrix(.30293 -.2751 .34559 .5119 -57.048 888.215)"/><linearGradient xlink:href="#a" id="v" x1="370.804" y1="363.043" x2="374.912" y2="363.043" gradientUnits="userSpaceOnUse" gradientTransform="rotate(60.368 -245.405 505.271)"/><linearGradient xlink:href="#a" id="u" x1="370.804" y1="363.043" x2="374.912" y2="363.043" gradientUnits="userSpaceOnUse" gradientTransform="matrix(-.2231 .26231 -.31953 -.27018 389.931 963.856)"/><linearGradient xlink:href="#a" id="t" x1="370.804" y1="363.043" x2="374.912" y2="363.043" gradientUnits="userSpaceOnUse" gradientTransform="rotate(169.778 252.742 656.441)"/><linearGradient xlink:href="#a" id="s" x1="371.366" y1="363.614" x2="374.912" y2="363.043" gradientUnits="userSpaceOnUse" gradientTransform="matrix(.57184 .09148 -.23142 .79138 61.038 649.832)"/><linearGradient xlink:href="#a" id="r" x1="371.366" y1="363.614" x2="374.912" y2="363.043" gradientUnits="userSpaceOnUse" gradientTransform="matrix(.27181 -.51135 .67372 .47534 -155.731 986.378)"/><linearGradient xlink:href="#a" id="q" x1="370.804" y1="363.043" x2="374.912" y2="363.043" gradientUnits="userSpaceOnUse" gradientTransform="matrix(.18744 -.36374 .50294 .3585 -62.976 972.23)"/><linearGradient xlink:href="#a" id="p" x1="370.804" y1="363.043" x2="374.912" y2="363.043" gradientUnits="userSpaceOnUse" gradientTransform="rotate(39.873 -552.915 410.063)"/><linearGradient xlink:href="#a" id="o" x1="370.804" y1="363.043" x2="374.912" y2="363.043" gradientUnits="userSpaceOnUse" gradientTransform="matrix(.1499 -.31001 .37724 .18107 2.517 1015.877)"/><linearGradient xlink:href="#a" id="n" x1="370.804" y1="363.043" x2="374.912" y2="363.043" gradientUnits="userSpaceOnUse" gradientTransform="rotate(-24.798 1648.009 1067.064)"/><linearGradient xlink:href="#a" id="m" x1="371.366" y1="363.614" x2="374.912" y2="363.043" gradientUnits="userSpaceOnUse" gradientTransform="matrix(-.57645 .05538 .02481 -.82415 404.063 1238.152)"/><linearGradient xlink:href="#a" id="l" x1="371.366" y1="363.614" x2="374.912" y2="363.043" gradientUnits="userSpaceOnUse" gradientTransform="matrix(-.13438 .5633 -.77166 -.2905 526.995 855.59)"/><linearGradient xlink:href="#a" id="k" x1="370.804" y1="363.043" x2="374.912" y2="363.043" gradientUnits="userSpaceOnUse" gradientTransform="matrix(-.08987 .3992 -.57697 -.2204 440.785 892.625)"/><linearGradient xlink:href="#a" id="j" x1="370.804" y1="363.043" x2="374.912" y2="363.043" gradientUnits="userSpaceOnUse" gradientTransform="rotate(-154.702 351.277 682.558)"/><linearGradient xlink:href="#a" id="i" x1="370.804" y1="363.043" x2="374.912" y2="363.043" gradientUnits="userSpaceOnUse" gradientTransform="matrix(-.00305 .34434 -.41844 -.0025 352.36 821.628)"/><linearGradient xlink:href="#a" id="h" x1="370.804" y1="363.043" x2="374.912" y2="363.043" gradientUnits="userSpaceOnUse" gradientTransform="rotate(129.904 149.36 616.423)"/><linearGradient xlink:href="#a" id="g" x1="371.366" y1="363.614" x2="374.912" y2="363.043" gradientUnits="userSpaceOnUse" gradientTransform="matrix(.4975 -.2964 .32974 .75572 -106.187 790.73)"/><linearGradient xlink:href="#a" id="f" x1="371.366" y1="363.614" x2="374.912" y2="363.043" gradientUnits="userSpaceOnUse" gradientTransform="matrix(-.11922 -.5667 .82179 -.06711 -53.852 1189.136)"/><linearGradient xlink:href="#a" id="e" x1="370.804" y1="363.043" x2="374.912" y2="363.043" gradientUnits="userSpaceOnUse" gradientTransform="matrix(-.08934 -.39933 .61582 -.0473 8.265 1118.813)"/><linearGradient xlink:href="#a" id="d" x1="370.804" y1="363.043" x2="374.912" y2="363.043" gradientUnits="userSpaceOnUse" gradientTransform="translate(-172.322 587.926)"/><linearGradient gradientTransform="matrix(1.54155 0 0 1.55488 -212.08 1535.236)" xlink:href="#b" id="c" x1="163.787" y1="-354.08" x2="288.291" y2="-410.601" gradientUnits="userSpaceOnUse"/><linearGradient id="b"><stop offset="0" stop-color="#ffb313"/><stop offset="1" stop-color="#a31f27"/></linearGradient></defs><g transform="translate(0 -839.764)"><ellipse cx="110.957" cy="946.736" rx="82.583" ry="83.297" opacity=".545" fill="url(#c)"/><path d="M199.92 951.743l1.515-1.136-1.745-.148z" fill="none" stroke="url(#d)"/><path d="M198.754 952.93l-.534-.52-.12.882z" fill="none" stroke="url(#e)" stroke-width=".5"/><path d="M200.972 955.065l.349-2.003-1.106.64-.025-.133.625.345z" fill="none" stroke="url(#f)" stroke-width=".688"/><path d="M197.82 955.972c.473-.246-.499-1.385 1.555-.26-.14.098-.27.189-.393.273-3.69 2.53.192-.9-.12-1.171l-.02.216-1.348 1.264z" fill="none" stroke="url(#g)" stroke-width=".688"/><path d="M200.158 949.449l-.1 1.891 1.233-1.243z" fill="none" stroke="url(#h)"/><path d="M198.991 948.892l.605.592-.067-.667z" fill="none" stroke="url(#i)" stroke-width=".38"/><path d="M196.117 961.774l-1.855.38 1.514.879z" fill="none" stroke="url(#j)"/><path d="M197.678 961.198l.26.699.485-.746z" fill="none" stroke="url(#k)" stroke-width=".5"/><path d="M196.585 958.32l-1.171 1.663 1.273-.107-.034.132-.418-.58z" fill="none" stroke="url(#l)" stroke-width=".688"/><path d="M199.823 958.848c-.534.02-.142 1.465-1.518-.43.168-.029.326-.055.472-.078 4.417-.71-.558.732-.393 1.11l.111-.188 1.76-.567z" fill="none" stroke="url(#m)" stroke-width=".688"/><path d="M194.92 963.746l.9-1.667-1.646.598z" fill="none" stroke="url(#n)"/><path d="M195.56 966.355l-.294-.793-.225.632z" fill="none" stroke="url(#o)" stroke-width=".38"/><path d="M186.755 967.683l1.892.1-1.244-1.233z" fill="none" stroke="url(#p)"/><path d="M189.564 967.043l-.076-.741-.657.6z" fill="none" stroke="url(#q)" stroke-width=".5"/><path d="M189.898 970.104l1.552-1.314-1.26-.218.067-.119.259.667z" fill="none" stroke="url(#r)" stroke-width=".688"/><path d="M188.415 971.546c.521.115.506-1.382 1.36.799a55.32 55.32 0 0 1-.476-.044c-4.453-.424.725-.568.66-.975l-.155.153-1.845.106z" fill="none" stroke="url(#s)" stroke-width=".688"/><path d="M187.07 965.628l-1.289 1.388 1.743-.164z" fill="none" stroke="url(#t)"/><path d="M190.639 963.203l.085.842.376-.555z" fill="none" stroke="url(#u)" stroke-width=".38"/><path d="M182.932 972.2l1.737.756-.734-1.59z" fill="none" stroke="url(#v)"/><path d="M181.324 971.775l.188-.722-.825.332z" fill="none" stroke="url(#w)" stroke-width=".5"/><path d="M180.566 974.758l1.913-.687-1.103-.645.103-.088.01.715z" fill="none" stroke="url(#x)" stroke-width=".688"/><path d="M179.647 975.093l-1.694.848 1.69.457z" fill="none" stroke="url(#y)"/><path d="M184.951 969.984l-.215.818.547-.387z" fill="none" stroke="url(#z)" stroke-width=".38"/><path d="M174.94 975.337l-.532.913.95-.315z" fill="none" stroke="url(#A)" stroke-width=".564"/><path d="M171.445 974.11l.28-.692-.861.222z" fill="none" stroke="url(#B)" stroke-width=".5"/><path d="M170.304 976.969l1.987-.433-1.01-.783.114-.073-.084.71z" fill="none" stroke="url(#C)" stroke-width=".688"/><path d="M168.276 974.39c.406.346 1.095-.983.826 1.344l-.4-.262c-3.734-2.464.906-.162 1.04-.552l-.208.063-1.68-.772z" fill="none" stroke="url(#D)" stroke-width=".688"/><path d="M176.944 971.357l.456 1.839.817-1.55z" fill="none" stroke="url(#E)"/><path d="M175.274 972.806l-.32.784.593-.314z" fill="none" stroke="url(#F)" stroke-width=".38"/><path d="M162.312 976.076l1.575 1.051-.44-1.695z" fill="none" stroke="url(#G)"/><path d="M160.805 975.37l.313-.676-.871.18z" fill="none" stroke="url(#H)" stroke-width=".5"/><path d="M159.529 978.172l2.004-.337-.97-.83.117-.068-.118.705z" fill="none" stroke="url(#I)" stroke-width=".688"/><path d="M157.247 973.732c.39.365 1.14-.93.762 1.382l-.388-.281c-3.612-2.64.913-.118 1.065-.501l-.21.052-1.641-.851z" fill="none" stroke="url(#J)" stroke-width=".688"/><path d="M164.555 975.538l-1.817.534 1.583.75z" fill="none" stroke="url(#K)"/><path d="M164.692 974.253l-.357.767.608-.285z" fill="none" stroke="url(#L)" stroke-width=".38"/><path d="M152.051 976.622l1.57 1.06-.432-1.698z" fill="none" stroke="url(#M)"/><path d="M150.547 975.91l.316-.675-.871.176z" fill="none" stroke="url(#N)" stroke-width=".5"/><path d="M149.258 978.706l2.007-.328-.968-.834.118-.068-.121.704z" fill="none" stroke="url(#O)" stroke-width=".688"/><path d="M148.128 976.351c-.314.432 1.063 1.019-1.277.926l.23-.42c2.176-3.908.23.893.63.996l-.079-.202.643-1.733z" fill="none" stroke="url(#P)" stroke-width=".688"/><path d="M154.297 976.096l-1.82.525 1.58.757z" fill="none" stroke="url(#Q)"/><path d="M154.44 974.81l-.36.766.608-.282z" fill="none" stroke="url(#R)" stroke-width=".38"/><path d="M144.009 979.36l1.6 1.015-.48-1.684z" fill="none" stroke="url(#S)"/><path d="M140.37 976.546l.297-.684-.866.2z" fill="none" stroke="url(#T)" stroke-width=".5"/><path d="M139.161 979.376l1.996-.384-.99-.807.116-.07-.101.707z" fill="none" stroke="url(#U)" stroke-width=".688"/><path d="M137.103 976.83c-.349.404.976 1.102-1.35.817l.265-.399c2.489-3.717.156.908.545 1.044l-.061-.208.783-1.674z" fill="none" stroke="url(#V)" stroke-width=".688"/><path d="M134.416 976.807l-1.12.979.994 1.207z" fill="none" stroke="url(#W)" stroke-width="1.026"/><path d="M144.23 975.336l-.338.775.6-.3z" fill="none" stroke="url(#X)" stroke-width=".38"/><path d="M136.218 980.337l1.454 1.214-.257-1.732z" fill="none" stroke="url(#Y)"/><path d="M130.25 977.33l.383-.64-.885.086z" fill="none" stroke="url(#Z)" stroke-width=".5"/><path d="M128.682 979.979l2.029-.121-.877-.93.124-.055-.192.689z" fill="none" stroke="url(#aa)" stroke-width=".688"/><path d="M127.075 977.118c.348.405 1.233-.802.61 1.455a54.42 54.42 0 0 1-.356-.32c-3.31-3.01.92-.02 1.113-.385l-.216.03-1.54-1.021z" fill="none" stroke="url(#ab)" stroke-width=".688"/><path d="M138.825 974.296l-.476.554.382 1.5z" fill="none" stroke="url(#ac)" stroke-width=".647"/><path d="M132.971 973.35l-.437.724.635-.218z" fill="none" stroke="url(#ad)" stroke-width=".38"/><path d="M120.922 977.865l1.395 1.281-.174-1.742z" fill="none" stroke="url(#ae)"/><path d="M119.542 976.936l.413-.62-.888.044z" fill="none" stroke="url(#af)" stroke-width=".5"/><path d="M117.85 979.507l2.032-.024-.831-.97.126-.049-.225.678z" fill="none" stroke="url(#ag)" stroke-width=".688"/><path d="M116.381 976.573c.329.421 1.27-.742.54 1.483l-.34-.337c-3.162-3.165.92.024 1.13-.331l-.217.02-1.49-1.095z" fill="none" stroke="url(#ah)" stroke-width=".688"/><path d="M123.222 977.68l-1.878.247 1.448.984z" fill="none" stroke="url(#ai)"/><path d="M123.555 976.43l-.47.703.643-.188z" fill="none" stroke="url(#aj)" stroke-width=".38"/><path d="M110.7 976.823l1.388 1.289-.165-1.744z" fill="none" stroke="url(#ak)"/><path d="M109.324 975.888l.416-.618-.888.04z" fill="none" stroke="url(#al)" stroke-width=".5"/><path d="M107.62 978.452l2.032-.015-.827-.974.127-.048-.228.677z" fill="none" stroke="url(#am)" stroke-width=".688"/><path d="M118.962 973.52c.148.512.58-.896.242 1.804a78.538 78.538 0 0 1-.154-.412c-1.432-3.863.42.035.515-.395l-.099.022-.675-1.338z" fill="none" stroke="url(#an)" stroke-width=".512"/><path d="M113 976.649l-1.879.239 1.444.99z" fill="none" stroke="url(#ao)"/><path d="M113.34 975.401l-.474.701.644-.185z" fill="none" stroke="url(#ap)" stroke-width=".38"/><path d="M101.097 975.7l1.414 1.259-.201-1.74z" fill="none" stroke="url(#aq)"/><path d="M99.702 974.792l.403-.626-.887.058z" fill="none" stroke="url(#ar)" stroke-width=".5"/><path d="M98.05 977.39l2.032-.056-.847-.957.126-.05-.214.68z" fill="none" stroke="url(#as)" stroke-width=".688"/><path d="M95.273 977.005c.335.415 1.259-.763.563 1.474a60.364 60.364 0 0 1-.345-.332c-3.211-3.114.92.01 1.124-.349l-.216.023-1.507-1.07z" fill="none" stroke="url(#at)" stroke-width=".688"/><path d="M103.393 975.478l-1.874.277 1.464.961z" fill="none" stroke="url(#au)"/><path d="M103.707 974.224l-.46.71.64-.198z" fill="none" stroke="url(#av)" stroke-width=".38"/><path d="M91.231 978.542l1.238 1.434.028-1.751z" fill="none" stroke="url(#aw)"/><path d="M89.587 973.926l.482-.568-.887-.059z" fill="none" stroke="url(#ax)" stroke-width=".5"/><path d="M87.611 976.287l2.022.209-.714-1.059.131-.034-.301.648z" fill="none" stroke="url(#ay)" stroke-width=".688"/><path d="M86.489 973.204c.278.455 1.347-.592.366 1.534a54.402 54.402 0 0 1-.299-.373c-2.778-3.506.912.129 1.16-.2l-.217-.006-1.354-1.257z" fill="none" stroke="url(#az)" stroke-width=".688"/><path d="M94.547 970.793l-1.894.031 1.326 1.144z" fill="none" stroke="url(#aA)"/><path d="M93.632 973.884l-.548.644.661-.112z" fill="none" stroke="url(#aB)" stroke-width=".38"/><path d="M80.297 972.944l1.168 1.49.111-1.747z" fill="none" stroke="url(#aC)"/><path d="M79.085 971.804l.509-.545-.884-.101z" fill="none" stroke="url(#aD)" stroke-width=".5"/><path d="M76.998 974.067l2.01.305-.663-1.091.133-.028-.332.632z" fill="none" stroke="url(#aE)" stroke-width=".688"/><path d="M76.025 970.934c.256.468 1.374-.527.292 1.55-.1-.138-.194-.267-.28-.388-2.608-3.634.904.173 1.168-.143l-.217-.016-1.293-1.32z" fill="none" stroke="url(#aF)" stroke-width=".688"/><path d="M82.47 969.472l-1.893-.06 1.27 1.206z" fill="none" stroke="url(#aG)"/><path d="M83.127 971.955l-.578.617.666-.08z" fill="none" stroke="url(#aH)" stroke-width=".38"/><path d="M70.378 970.26l1.162 1.496.119-1.747z" fill="none" stroke="url(#aI)"/><path d="M69.172 969.114l.511-.542-.883-.105z" fill="none" stroke="url(#aJ)" stroke-width=".5"/><path d="M67.075 971.368l2.008.315-.658-1.095.133-.027-.335.63z" fill="none" stroke="url(#aK)" stroke-width=".688"/><path d="M66.116 968.23c.254.47 1.377-.52.285 1.552l-.28-.39c-2.59-3.646.905.178 1.17-.137l-.217-.017-1.286-1.327z" fill="none" stroke="url(#aL)" stroke-width=".688"/><path d="M72.677 970.46l-1.893-.068 1.264 1.212z" fill="none" stroke="url(#aM)"/><path d="M73.214 969.285l-.582.614.666-.077z" fill="none" stroke="url(#aN)" stroke-width=".38"/><path d="M60.948 967.769l1.218 1.45.052-1.75z" fill="none" stroke="url(#aO)"/><path d="M59.699 966.67l.49-.561-.887-.071z" fill="none" stroke="url(#aP)" stroke-width=".5"/><path d="M57.437 970.392l2.019.237-.7-1.068.132-.033-.31.644z" fill="none" stroke="url(#aQ)" stroke-width=".688"/><path d="M55.727 963.379c.272.46 1.356-.573.344 1.54-.105-.135-.203-.26-.294-.379-2.728-3.544.91.143 1.163-.183l-.217-.009-1.336-1.276z" fill="none" stroke="url(#aR)" stroke-width=".688"/><path d="M63.252 967.881l-1.894.004 1.31 1.163z" fill="none" stroke="url(#aS)"/><path d="M63.744 966.685l-.558.637.663-.104z" fill="none" stroke="url(#aT)" stroke-width=".38"/><path d="M50.91 965.606l1.02 1.597.279-1.729z" fill="none" stroke="url(#aU)"/><path d="M49.815 964.355l.559-.494-.87-.185z" fill="none" stroke="url(#aV)" stroke-width=".5"/><path d="M46.635 968.173l1.97.499-.554-1.151.135-.015-.391.598z" fill="none" stroke="url(#aW)" stroke-width=".688"/><path d="M45.843 962.056c.21.491 1.419-.392.14 1.572a53.479 53.479 0 0 1-.241-.414c-2.244-3.87.883.26 1.177-.03l-.214-.036-1.16-1.44z" fill="none" stroke="url(#aX)" stroke-width=".688"/><path d="M53.18 966.018l-1.878-.243 1.147 1.323z" fill="none" stroke="url(#aY)"/><path d="M53.824 964.896l-.636.558.67-.016z" fill="none" stroke="url(#aZ)" stroke-width=".38"/><path d="M40.763 962.042l.941 1.644.362-1.714z" fill="none" stroke="url(#ba)"/><path d="M39.729 960.74l.581-.467-.86-.227z" fill="none" stroke="url(#bb)" stroke-width=".5"/><path d="M37.337 962.678l1.945.592-.5-1.176.137-.009-.42.578z" fill="none" stroke="url(#bc)" stroke-width=".688"/><path d="M36.826 959.437c.186.5 1.436-.323.065 1.576-.08-.15-.153-.292-.222-.424-2.055-3.973.87.302 1.177.026l-.212-.047-1.089-1.493z" fill="none" stroke="url(#bd)" stroke-width=".688"/><path d="M43.011 962.561l-1.865-.332 1.083 1.377z" fill="none" stroke="url(#be)"/><path d="M43.707 961.472l-.662.527.67.016z" fill="none" stroke="url(#bf)" stroke-width=".38"/><path d="M30.319 960.577c.283.452 1.341-.607.382 1.53a56.22 56.22 0 0 1-.303-.37c-2.815-3.477.913.12 1.158-.212l-.217-.003-1.368-1.243z" fill="none" stroke="url(#bg)" stroke-width=".688"/><path d="M31.662 957.572l.22 1.882 1.005-1.434z" fill="none" stroke="url(#bh)"/><path d="M29.607 956.906l.661-.345-.799-.39z" fill="none" stroke="url(#bi)" stroke-width=".5"/><path d="M26.885 958.343l1.792.958-.26-1.25.135.018-.525.485z" fill="none" stroke="url(#bj)" stroke-width=".688"/><path d="M27.012 955.064c.085.527 1.472-.038-.241 1.56a54.716 54.716 0 0 1-.136-.46c-1.245-4.296.795.465 1.15.255l-.2-.088-.777-1.676z" fill="none" stroke="url(#bk)" stroke-width=".688"/><path d="M33.525 958.932l-1.584-1.037.455 1.69z" fill="none" stroke="url(#bl)"/><path d="M34.593 958.203l-.816.226.61.278z" fill="none" stroke="url(#bm)" stroke-width=".38"/><path d="M22.037 951.63l.22-1.882-1.31 1.162z" fill="none" stroke="url(#bn)"/><path d="M22.093 953.292l-.744.029.556.693z" fill="none" stroke="url(#bo)" stroke-width=".5"/><path d="M25.169 953.156l-1.211-1.633-.299 1.242-.114-.074.682-.215z" fill="none" stroke="url(#bp)" stroke-width=".688"/><path d="M23.652 956.065c.149-.513-1.346-.594.885-1.306-.025.169-.05.326-.074.473-.71 4.416-.52-.76-.93-.721l.142.164-.012 1.848z" fill="none" stroke="url(#bq)" stroke-width=".688"/><path d="M20.539 949.875l1.3 1.376-.05-1.75z" fill="none" stroke="url(#br)"/><path d="M19.331 950.337l.846-.03-.53-.412z" fill="none" stroke="url(#bs)" stroke-width=".38"/><path d="M21.017 947.31l-.826-.184.409.532z" fill="none" stroke="url(#bt)" stroke-width=".38"/><path d="M24.985 940.008l1.515-1.136-1.745-.148z" fill="none" stroke="url(#bu)"/><path d="M33.92 961.65l-.533-.519-.12.881z" fill="none" stroke="url(#bv)" stroke-width=".5"/><path d="M18.462 949.264l.348-2.003-1.106.64-.025-.133.626.345z" fill="none" stroke="url(#bw)" stroke-width=".688"/><path d="M19.096 944.615c.474-.246-.497-1.385 1.557-.259l-.394.273c-3.69 2.529.192-.901-.119-1.172l-.02.217-1.348 1.264z" fill="none" stroke="url(#bx)" stroke-width=".688"/><path d="M23.33 942.007l-.1 1.891 1.232-1.244z" fill="none" stroke="url(#by)"/><path d="M21.531 944.986l.605.591-.067-.667z" fill="none" stroke="url(#bz)" stroke-width=".38"/><path d="M53.381 968.095l-1.855.38 1.514.88z" fill="none" stroke="url(#bA)"/><path d="M20.47 942.266l.261.698.485-.746z" fill="none" stroke="url(#bB)" stroke-width=".5"/><path d="M22.155 937.494l-1.17 1.662 1.272-.106-.034.131-.418-.58z" fill="none" stroke="url(#bC)" stroke-width=".688"/><path d="M24.13 947.113c-.533.02-.141 1.465-1.517-.43.168-.03.325-.055.472-.079 4.417-.71-.558.733-.393 1.11l.111-.187 1.76-.567z" fill="none" stroke="url(#bD)" stroke-width=".688"/><path d="M44.23 966.532l.899-1.667-1.646.597z" fill="none" stroke="url(#bE)"/><path d="M54.896 969.68l-.294-.793-.225.632z" fill="none" stroke="url(#bF)" stroke-width=".38"/><path d="M57.301 967.008l.085.842.377-.555z" fill="none" stroke="url(#bG)" stroke-width=".38"/><path d="M43.495 967.134l-.534-.52-.119.881z" fill="none" stroke="url(#bH)" stroke-width=".5"/><path d="M44.127 967.134l-.534-.52-.12.881z" fill="none" stroke="url(#bI)" stroke-width=".5"/><path d="M54.349 966.728l2.154 1.39.404.583z" fill="none" stroke="url(#bJ)" stroke-width=".569"/><path d="M173.136 974.363l-.364-.462.099.742z" fill="none" stroke="url(#bK)" stroke-width=".319"/><path d="M173.723 972.357l.168.798.088-.821z" fill="none" stroke="url(#bL)" stroke-width=".307"/><path d="M192.48 966.504l.827.183-.41-.532z" fill="none" stroke="url(#bM)" stroke-width=".38"/><path d="M192.361 963.373l.17 1.158.753.851z" fill="none" stroke="url(#bN)" stroke-width=".537"/><path d="M197.302 946.3l-1.661.91 1.706.394z" fill="none" stroke="url(#bO)"/><path d="M197.024 949.965l.739-.099-.62-.638z" fill="none" stroke="url(#bP)" stroke-width=".5"/><path d="M199.189 947.686l.502-.55-.885-.09z" fill="none" stroke="url(#bQ)" stroke-width=".5"/><path d="M194.95 944.812l.331-.27-.583-.045z" fill="none" stroke="url(#bR)" stroke-width=".285"/><ellipse cx="-328.244" cy="-828.69" rx="9.744" ry="9.278" transform="rotate(-170.264) skewX(-.08)" fill="#fff"/></g></svg>