<svg xmlns="http://www.w3.org/2000/svg" xmlns:xlink="http://www.w3.org/1999/xlink" width="42mm" height="80mm" viewBox="0 0 148.819 283.465"><defs><linearGradient gradientTransform="matrix(1.06706 0 0 1.04192 -229.33 124.939)" xlink:href="#a" id="k" x1="284.795" y1="738.882" x2="284.253" y2="651.333" gradientUnits="userSpaceOnUse"/><linearGradient id="a"><stop offset="0" stop-color="#cc1422"/><stop offset="1" stop-color="#ffdb49"/></linearGradient><linearGradient xlink:href="#b" id="j" x1="242.997" y1="837.135" x2="265.508" y2="794.992" gradientUnits="userSpaceOnUse" gradientTransform="matrix(-1 0 0 1 356.132 154.973)"/><linearGradient id="b"><stop offset="0" stop-color="#9a1212"/><stop offset="1" stop-color="#ff0c0c" stop-opacity=".834"/></linearGradient><linearGradient xlink:href="#b" id="i" x1="242.997" y1="837.135" x2="265.508" y2="794.992" gradientUnits="userSpaceOnUse" gradientTransform="translate(-207.56 155.073)"/><linearGradient gradientTransform="translate(-210.06 155.073)" xlink:href="#c" id="h" x1="284.737" y1="819.351" x2="285.928" y2="838.165" gradientUnits="userSpaceOnUse"/><linearGradient id="c"><stop offset="0" stop-color="#ff0c0c"/><stop offset="1" stop-color="#e3ed10"/></linearGradient><linearGradient gradientTransform="translate(-210.06 155.073)" xlink:href="#d" id="g" x1="286.071" y1="820.934" x2="285.893" y2="864.862" gradientUnits="userSpaceOnUse"/><linearGradient id="d"><stop offset="0" stop-color="#ed1015"/><stop offset="1" stop-color="#edd410" stop-opacity=".97"/></linearGradient><linearGradient gradientTransform="translate(-210.06 155.073)" xlink:href="#e" id="f" x1="283.958" y1="819.776" x2="284.253" y2="651.333" gradientUnits="userSpaceOnUse"/><linearGradient id="e"><stop offset="0" stop-color="#ff0c0c"/><stop offset="1" stop-color="#9a1212"/></linearGradient></defs><path d="M98.036 891.763c0 29.322-2.686 72.6-11.52 82.676l-24.509.023c-8.226-10.87-11.448-54.658-11.448-82.699 0-38.216 23.738-75.624 23.738-75.624s23.739 37.408 23.739 75.624z" fill="url(#f)" transform="translate(0 -768.898)"/><path d="M85.832 994.487c0 9.124-10.535 16.52-10.535 16.52s-10.536-7.396-10.536-16.52c0-9.123-1.354-16.244 10.536-16.52 10.812-.25 10.535 7.397 10.535 16.52z" fill="url(#g)" transform="translate(0 -768.898)"/><path d="M62.796 974.221h23.93l5.356 10c-5.897-1.336-12.234-3.994-17.532-3.535-5.466-.386-10.931 2.09-16.396 3.535z" fill="url(#h)" fill-rule="evenodd" transform="translate(0 -768.898)"/><path d="M58.47 959.89c-4.469 2.921-7.63 2.877-10.891 5.454-17.407 12.724-6.774 37.38-6.774 37.38-10.178-12.308-10.591-20.664-10.939-28.994 2.566-17.641 14.112-27.361 25.712-30.311z" fill="url(#i)" fill-rule="evenodd" transform="translate(0 -768.898)"/><path d="M90.102 959.79c4.468 2.92 7.63 2.877 10.89 5.454 17.408 12.723 6.774 37.38 6.774 37.38 10.178-12.308 10.592-20.664 10.94-28.994-2.566-17.642-14.112-27.362-25.713-30.311z" fill="url(#j)" fill-rule="evenodd" transform="translate(0 -768.898)"/><path d="M99.427 892.512c-6.054 5.131-17.436 6.336-25.709 6.272-8.568-.066-16.482-1.442-24.952-6.272 0-39.818 25.33-78.795 25.33-78.795s25.33 38.977 25.33 78.795z" fill="url(#k)" transform="translate(0 -768.898)"/><path d="M48.51 123.36c16.59 8.01 33.709 7.58 51.25.357m-51.86-7.075c16.59 8.01 33.707 7.58 51.25.357" fill="none" stroke="#fff"/><path d="M58.537 75.79c10.06 4.994 20.44 4.726 31.077.223" fill="none" stroke="#fff" stroke-width=".615"/></svg>