<svg xmlns="http://www.w3.org/2000/svg" xmlns:xlink="http://www.w3.org/1999/xlink" width="60mm" height="60mm" viewBox="0 0 212.598 212.598"><defs><linearGradient gradientTransform="matrix(.06835 0 0 .06865 -1807.742 -90.321)" xlink:href="#a" id="e" x1="166.643" y1="175.934" x2="271.929" y2="197.362" gradientUnits="userSpaceOnUse"/><linearGradient id="a"><stop offset="0" stop-color="#7e7e7f"/><stop offset="1" stop-color="#00033e"/></linearGradient><linearGradient xlink:href="#b" id="d" x1="376.262" y1="177.57" x2="434.869" y2="143.824" gradientUnits="userSpaceOnUse" gradientTransform="matrix(.72032 0 0 .75727 -520.392 -1074.732)"/><linearGradient id="b"><stop offset="0" stop-color="#f162b1"/><stop offset="1" stop-color="#6400ce"/></linearGradient><linearGradient xlink:href="#b" id="c" x1="376.262" y1="177.57" x2="434.869" y2="143.824" gradientUnits="userSpaceOnUse" gradientTransform="matrix(.72032 0 0 .75727 -575.002 -1033.611)"/></defs><g transform="translate(0 -839.764)"><ellipse cx="-274.125" cy="-899.142" rx="29.577" ry="29.723" transform="matrix(-.9839 -.17876 .16125 -.98691 0 0)" opacity=".545" fill="url(#c)"/><path d="M153.48 943.184c11.348 7.577 15.027 17.324 7.99 25.988-10.995 13.54-43.988 19.312-73.691 12.893-29.703-6.42-44.87-22.598-33.874-36.137 6.75-8.312 21.788-13.696 39.267-15.13" fill="none" stroke="#000" stroke-width=".882" stroke-linejoin="round" stroke-opacity=".858"/><ellipse cx="-219.504" cy="-940.619" rx="29.577" ry="29.723" transform="matrix(-.9839 -.17876 .16125 -.98691 0 0)" fill="#fff"/><ellipse cx="-219.515" cy="-940.264" rx="29.577" ry="29.723" transform="matrix(-.9839 -.17876 .16125 -.98691 0 0)" opacity=".545" fill="url(#d)"/><path d="M151.935 919.095a41.024 26.036 64.285 0 1-1.15 50.757 41.024 26.036 64.285 0 1-41.628-20.277 41.024 26.036 64.285 0 1 1.15-50.757 41.024 26.036 64.285 0 1 41.628 20.277z" fill="none" stroke="#000" stroke-width=".683" stroke-linejoin="round"/><ellipse cx="-903.337" cy="6.264" rx="3.662" ry="3.678" transform="matrix(-.13279 -.99114 .9931 -.11734 0 0)" fill="#fff"/><ellipse cx="-903.739" cy="5.851" rx="3.662" ry="3.678" transform="matrix(-.13279 -.99114 .9931 -.11734 0 0)" opacity=".545" fill="url(#e)"/></g></svg>